# Created by Kenney (www.kenney.nl)

mtllib plank.mtl

g mergedBlocks

v -0.3 0.18 -0.198
v -0.3 -0.18 -0.1980001
v -0.2648529 0.2648529 -0.198
v -0.2648529 -0.2648529 -0.1980001
v -0.18 0.3 -0.198
v -0.18 -0.3 -0.1980001
v 0.18 0.3 -0.198
v 0.18 -0.3 -0.198
v 0.2648529 0.2648529 -0.198
v 0.2648529 -0.2648529 -0.198
v 0.3 0.18 -0.198
v 0.3 -0.18 -0.198
v -0.3 -0.18 -0.09900006
v -0.3 0.18 -0.09900001
v -0.2648529 -0.2648529 -0.09900006
v -0.2648529 0.2648529 -0.099
v -0.24 -0.1680653 -0.09900005
v -0.2189308 -0.2189308 -0.09900006
v -0.24 0.1680653 -0.09900001
v -0.18 -0.3 -0.09900006
v -0.2189308 0.2189308 -0.099
v -0.1680653 -0.24 -0.09900005
v -0.18 0.3 -0.09899998
v -0.1680653 0.24 -0.09899999
v 0.18 -0.3 -0.09900003
v 0.1680653 -0.24 -0.09900002
v 0.2189308 -0.2189308 -0.09900001
v 0.18 0.3 -0.09899995
v 0.1680653 0.24 -0.09899996
v 0.2189308 0.2189308 -0.09899995
v 0.2648529 -0.2648529 -0.09900001
v 0.2648529 0.2648529 -0.09899995
v 0.24 -0.1680653 -0.09900001
v 0.24 0.1680653 -0.09899996
v 0.3 -0.18 -0.099
v 0.3 0.18 -0.09899995
v -0.24 -0.1680653 -4.101641E-08
v -0.24 0.1680653 -9.465246E-10
v -0.2189308 -0.2189308 -4.523811E-08
v -0.2189308 0.2189308 6.959043E-09
v -0.1680653 -0.24 -4.330296E-08
v -0.1680653 0.24 1.391749E-08
v 0.1680653 -0.24 -1.391749E-08
v 0.1680653 0.24 4.330296E-08
v 0.2189308 0.2189308 4.523811E-08
v 0.2189308 -0.2189308 -6.959043E-09
v 0.24 -0.1680653 9.465246E-10
v 0.24 0.1680653 4.101641E-08

vn 8.742278E-08 1.192093E-07 -1
vn -8.742278E-08 -1.192093E-07 1
vn 0.7071068 0.7071068 -2.247645E-08
vn 0.9807853 0.1950903 6.24864E-08
vn 0.1950903 0.9807853 -9.986336E-08
vn 0.9807853 -0.1950903 1.089995E-07
vn -0.1950903 0.9807853 -1.33974E-07
vn 0.7071068 -0.7071068 1.461109E-07
vn 0.1950903 -0.9807853 1.33974E-07
vn -0.1950903 -0.9807853 9.986336E-08
vn -0.7071068 0.7071068 -1.461109E-07
vn -0.9807853 0.1950903 -1.089995E-07
vn -0.9807853 -0.1950903 -6.24864E-08
vn -0.7071068 -0.7071068 2.247645E-08

vt 0.3 0.18
vt 0.3 -0.18
vt 0.2648529 0.2648529
vt 0.2648529 -0.2648529
vt 0.18 0.3
vt 0.18 -0.3
vt -0.18 0.3
vt -0.18 -0.3
vt -0.2648529 0.2648529
vt -0.2648529 -0.2648529
vt -0.3 0.18
vt -0.3 -0.18
vt -0.3 -0.18
vt -0.3 0.18
vt -0.2648529 -0.2648529
vt -0.2648529 0.2648529
vt -0.24 -0.1680653
vt -0.2189308 -0.2189308
vt -0.24 0.1680653
vt -0.18 -0.3
vt -0.2189308 0.2189308
vt -0.1680653 -0.24
vt -0.18 0.3
vt -0.1680653 0.24
vt 0.18 -0.3
vt 0.1680653 -0.24
vt 0.2189308 -0.2189308
vt 0.18 0.3
vt 0.1680653 0.24
vt 0.2189308 0.2189308
vt 0.2648529 -0.2648529
vt 0.2648529 0.2648529
vt 0.24 -0.1680653
vt 0.24 0.1680653
vt 0.3 -0.18
vt 0.3 0.18
vt 0.09899995 0.2648529
vt 0.198 0.2648529
vt 0.09899996 0.18
vt -0.2648529 -0.09899995
vt -0.18 -0.09899995
vt -0.2648529 -0.198
vt 0.198 0.18
vt -0.18 -0.198
vt 0.099 -0.18
vt 0.18 -0.09899998
vt 0.198 -0.18
vt 0.18 -0.198
vt 0.09900001 -0.2648529
vt 0.198 -0.2648529
vt -0.2648529 0.198
vt -0.18 0.198
vt -0.2648529 0.09900001
vt -0.18 0.09900003
vt 0.18 0.1980001
vt 0.18 0.09900006
vt 0.2648529 -0.099
vt 0.2648529 -0.198
vt -0.198 0.2648529
vt -0.099 0.2648529
vt -0.198 0.18
vt -0.09900001 0.18
vt -0.1980001 -0.18
vt -0.09900005 -0.18
vt 0.2648529 0.1980001
vt -0.1980001 -0.2648529
vt 0.2648529 0.09900006
vt -0.09900006 -0.2648529
vt -0.24 -0.1680653
vt -0.24 0.1680653
vt -0.2189308 -0.2189308
vt -0.2189308 0.2189308
vt -0.1680653 -0.24
vt -0.1680653 0.24
vt 0.1680653 0.24
vt 0.2189308 0.2189308
vt 0.2189308 -0.2189308
vt 0.24 -0.1680653
vt 0.24 0.1680653
vt -0.2189308 4.523811E-08
vt -0.1680653 4.330296E-08
vt -0.2189308 -0.09899996
vt -4.523811E-08 0.2189308
vt 0.09899996 0.2189308
vt -4.101641E-08 0.1680653
vt -0.1680653 -0.09899996
vt 0.09899997 0.1680653
vt 0.1680653 1.391749E-08
vt -9.465254E-10 -0.1680653
vt 0.1680653 -0.09899999
vt 0.09900001 -0.1680653
vt 0.2189308 6.959044E-09
vt 0.2189308 -0.099
vt -0.099 0.2189308
vt 6.959044E-09 0.2189308
vt -0.09900001 0.1680653
vt -9.465254E-10 0.1680653
vt -0.09900005 -0.1680653
vt -4.101641E-08 -0.1680653
vt 6.959044E-09 -0.2189308
vt 0.09900001 -0.2189308
vt -0.09900005 -0.2189308
vt -4.523811E-08 -0.2189308
vt -0.2189308 0.09900001
vt -0.1680653 0.09900002
vt -0.2189308 6.959044E-09
vt -0.1680653 1.391749E-08
vt 0.2189308 4.523811E-08
vt 0.1680653 4.330296E-08
vt 0.2189308 0.09900005
vt 0.1680653 0.09900005

usemtl lightRed(Clone)

f 3/3/1 2/2/1 1/1/1
f 2/2/1 3/3/1 4/4/1
f 4/4/1 3/3/1 5/5/1
f 4/4/1 5/5/1 6/6/1
f 6/6/1 5/5/1 7/7/1
f 6/6/1 7/7/1 8/8/1
f 8/8/1 7/7/1 9/9/1
f 8/8/1 9/9/1 10/10/1
f 10/10/1 9/9/1 11/11/1
f 10/10/1 11/11/1 12/12/1
f 15/15/2 14/14/2 13/13/2
f 14/14/2 15/15/2 16/16/2
f 16/16/2 15/15/2 17/17/2
f 17/17/2 15/15/2 18/18/2
f 19/19/2 16/16/2 17/17/2
f 18/18/2 15/15/2 20/20/2
f 21/21/2 16/16/2 19/19/2
f 18/18/2 20/20/2 22/22/2
f 16/16/2 21/21/2 23/23/2
f 23/23/2 21/21/2 24/24/2
f 22/22/2 20/20/2 25/25/2
f 22/22/2 25/25/2 26/26/2
f 26/26/2 25/25/2 27/27/2
f 23/23/2 24/24/2 28/28/2
f 28/28/2 24/24/2 29/29/2
f 28/28/2 29/29/2 30/30/2
f 27/27/2 25/25/2 31/31/2
f 28/28/2 30/30/2 32/32/2
f 27/27/2 31/31/2 33/33/2
f 33/33/2 31/31/2 34/34/2
f 32/32/2 30/30/2 34/34/2
f 32/32/2 34/34/2 31/31/2
f 32/32/2 31/31/2 35/35/2
f 32/32/2 35/35/2 36/36/2
f 36/39/4 9/38/3 32/37/3
f 9/42/3 28/41/5 32/40/3
f 9/38/3 36/39/4 11/43/4
f 28/41/5 9/42/3 7/44/5
f 35/45/6 11/43/4 36/39/4
f 7/44/5 23/46/7 28/41/5
f 11/43/4 35/45/6 12/47/6
f 23/46/7 7/44/5 5/48/7
f 31/49/8 12/47/6 35/45/6
f 12/47/6 31/49/8 10/50/8
f 31/53/8 8/52/9 10/51/8
f 8/52/9 31/53/8 25/54/9
f 25/54/9 6/55/10 8/52/9
f 6/55/10 25/54/9 20/56/10
f 5/48/7 16/57/11 23/46/7
f 16/57/11 5/48/7 3/58/11
f 1/61/12 16/60/11 3/59/11
f 16/60/11 1/61/12 14/62/12
f 2/63/13 14/62/12 1/61/12
f 14/62/12 2/63/13 13/64/13
f 20/56/10 4/65/14 6/55/10
f 4/66/14 13/64/13 2/63/13
f 4/65/14 20/56/10 15/67/14
f 13/64/13 4/66/14 15/68/14

usemtl woodDark(Clone)

f 39/71/2 38/70/2 37/69/2
f 38/70/2 39/71/2 40/72/2
f 40/72/2 39/71/2 41/73/2
f 40/72/2 41/73/2 42/74/2
f 42/74/2 41/73/2 43/26/2
f 42/74/2 43/26/2 44/75/2
f 44/75/2 43/26/2 45/76/2
f 45/76/2 43/26/2 46/77/2
f 45/76/2 46/77/2 47/78/2
f 45/76/2 47/78/2 48/79/2
f 30/82/3 44/81/5 45/80/3
f 48/85/4 30/84/3 45/83/3
f 44/81/5 30/82/3 29/86/5
f 30/84/3 48/85/4 34/87/4
f 29/86/5 42/88/7 44/81/5
f 47/89/6 34/87/4 48/85/4
f 42/88/7 29/86/5 24/90/7
f 34/87/4 47/89/6 33/91/6
f 24/90/7 40/92/11 42/88/7
f 40/92/11 24/90/7 21/93/11
f 19/96/12 40/95/11 21/94/11
f 40/95/11 19/96/12 38/97/12
f 17/98/13 38/97/12 19/96/12
f 38/97/12 17/98/13 37/99/13
f 46/100/8 33/91/6 47/89/6
f 33/91/6 46/100/8 27/101/8
f 18/102/14 37/99/13 17/98/13
f 37/99/13 18/102/14 39/103/14
f 46/106/8 26/105/9 27/104/8
f 26/105/9 46/106/8 43/107/9
f 18/110/14 41/109/10 39/108/14
f 41/109/10 26/105/9 43/107/9
f 41/109/10 18/110/14 22/111/10
f 26/105/9 41/109/10 22/111/10

