<?xml version="1.0" encoding="UTF-8" standalone="no"?>
<!-- Created with Inkscape (http://www.inkscape.org/) -->

<svg
   width="256"
   height="256"
   viewBox="0 0 256 256"
   version="1.1"
   id="svg1"
   inkscape:version="1.3.2 (091e20e, 2023-11-25, custom)"
   sodipodi:docname="EffectBlocks_icons.svg"
   xmlns:inkscape="http://www.inkscape.org/namespaces/inkscape"
   xmlns:sodipodi="http://sodipodi.sourceforge.net/DTD/sodipodi-0.dtd"
   xmlns="http://www.w3.org/2000/svg"
   xmlns:svg="http://www.w3.org/2000/svg">
  <sodipodi:namedview
     id="namedview1"
     pagecolor="#808080"
     bordercolor="#8d8d8d"
     borderopacity="0.58039216"
     inkscape:showpageshadow="false"
     inkscape:pageopacity="0"
     inkscape:pagecheckerboard="false"
     inkscape:deskcolor="#737373"
     inkscape:document-units="px"
     showborder="false"
     borderlayer="true"
     inkscape:clip-to-page="false"
     showguides="true"
     showgrid="true"
     inkscape:zoom="0.40598871"
     inkscape:cx="141.62955"
     inkscape:cy="533.26606"
     inkscape:window-width="2560"
     inkscape:window-height="1566"
     inkscape:window-x="-11"
     inkscape:window-y="-11"
     inkscape:window-maximized="1"
     inkscape:current-layer="layer1">
    <inkscape:grid
       id="grid4"
       units="px"
       originx="0"
       originy="0"
       spacingx="32"
       spacingy="32"
       empcolor="#404040"
       empopacity="0.30196078"
       color="#4a4a4a"
       opacity="0.14901961"
       empspacing="8"
       dotted="false"
       gridanglex="30"
       gridanglez="30"
       visible="true"
       snapvisiblegridlinesonly="false" />
  </sodipodi:namedview>
  <defs
     id="defs1">
    <clipPath
       clipPathUnits="userSpaceOnUse"
       id="clipPath1">
      <g
         id="g2">
        <rect
           x="-2464"
           y="-1755"
           width="1866"
           height="1820"
           id="rect2" />
      </g>
    </clipPath>
    <clipPath
       clipPathUnits="userSpaceOnUse"
       id="clipPath2">
      <g
         id="g3">
        <rect
           x="-2464"
           y="-1755"
           width="1866"
           height="1820"
           id="rect3" />
      </g>
    </clipPath>
    <clipPath
       clipPathUnits="userSpaceOnUse"
       id="clipPath3">
      <g
         id="g4">
        <rect
           x="-2464"
           y="-1755"
           width="1866"
           height="1820"
           id="rect4" />
      </g>
    </clipPath>
    <clipPath
       clipPathUnits="userSpaceOnUse"
       id="clipPath4">
      <g
         id="g5">
        <rect
           x="-2464"
           y="-1755"
           width="1866"
           height="1820"
           id="rect5" />
      </g>
    </clipPath>
    <clipPath
       clipPathUnits="userSpaceOnUse"
       id="clipPath5">
      <g
         id="g6">
        <rect
           x="-2464"
           y="-1755"
           width="1866"
           height="1820"
           id="rect6" />
      </g>
    </clipPath>
    <clipPath
       clipPathUnits="userSpaceOnUse"
       id="clipPath6">
      <g
         id="g7">
        <rect
           x="-2464"
           y="-1755"
           width="1866"
           height="1820"
           id="rect7" />
      </g>
    </clipPath>
    <clipPath
       clipPathUnits="userSpaceOnUse"
       id="clipPath7">
      <g
         id="g8">
        <rect
           x="-2464"
           y="-1755"
           width="1866"
           height="1820"
           id="rect8" />
      </g>
    </clipPath>
    <clipPath
       clipPathUnits="userSpaceOnUse"
       id="clipPath8">
      <g
         id="g9">
        <rect
           x="-2464"
           y="-1755"
           width="1866"
           height="1820"
           id="rect9" />
      </g>
    </clipPath>
    <clipPath
       clipPathUnits="userSpaceOnUse"
       id="clipPath9">
      <g
         id="g10">
        <rect
           x="-2464"
           y="-1755"
           width="1866"
           height="1820"
           id="rect10" />
      </g>
    </clipPath>
    <clipPath
       clipPathUnits="userSpaceOnUse"
       id="clipPath10">
      <g
         id="g11">
        <rect
           x="-2464"
           y="-1755"
           width="1866"
           height="1820"
           id="rect11" />
      </g>
    </clipPath>
    <clipPath
       clipPathUnits="userSpaceOnUse"
       id="clipPath11">
      <g
         id="g12">
        <rect
           x="-2464"
           y="-1755"
           width="1866"
           height="1820"
           id="rect12" />
      </g>
    </clipPath>
    <clipPath
       clipPathUnits="userSpaceOnUse"
       id="clipPath12">
      <g
         id="g13">
        <rect
           x="-2464"
           y="-1755"
           width="1866"
           height="1820"
           id="rect13" />
      </g>
    </clipPath>
    <clipPath
       clipPathUnits="userSpaceOnUse"
       id="clipPath13">
      <g
         id="g14">
        <rect
           x="-2464"
           y="-1755"
           width="1866"
           height="1820"
           id="rect14" />
      </g>
    </clipPath>
    <clipPath
       clipPathUnits="userSpaceOnUse"
       id="clipPath14">
      <g
         id="g15">
        <rect
           x="-2464"
           y="-1755"
           width="1866"
           height="1820"
           id="rect15" />
      </g>
    </clipPath>
    <clipPath
       clipPathUnits="userSpaceOnUse"
       id="clipPath15">
      <g
         id="g16">
        <rect
           x="-2464"
           y="-1755"
           width="1866"
           height="1820"
           id="rect16" />
      </g>
    </clipPath>
    <clipPath
       clipPathUnits="userSpaceOnUse"
       id="clipPath16">
      <g
         id="g17">
        <rect
           x="-2464"
           y="-1755"
           width="1866"
           height="1820"
           id="rect17" />
      </g>
    </clipPath>
    <clipPath
       clipPathUnits="userSpaceOnUse"
       id="clipPath17">
      <g
         id="g18">
        <rect
           x="-2464"
           y="-1755"
           width="1866"
           height="1820"
           id="rect18" />
      </g>
    </clipPath>
    <clipPath
       clipPathUnits="userSpaceOnUse"
       id="clipPath18">
      <g
         id="g19">
        <rect
           x="-2464"
           y="-1755"
           width="1866"
           height="1820"
           id="rect19" />
      </g>
    </clipPath>
    <clipPath
       clipPathUnits="userSpaceOnUse"
       id="clipPath19">
      <g
         id="g20">
        <rect
           x="-2464"
           y="-1755"
           width="1866"
           height="1820"
           id="rect20" />
      </g>
    </clipPath>
    <clipPath
       clipPathUnits="userSpaceOnUse"
       id="clipPath20">
      <g
         id="g21">
        <rect
           x="-2464"
           y="-1755"
           width="1866"
           height="1820"
           id="rect21" />
      </g>
    </clipPath>
    <clipPath
       clipPathUnits="userSpaceOnUse"
       id="clipPath21">
      <g
         id="g22">
        <rect
           x="-2464"
           y="-1755"
           width="1866"
           height="1820"
           id="rect22" />
      </g>
    </clipPath>
    <clipPath
       clipPathUnits="userSpaceOnUse"
       id="clipPath22">
      <g
         id="g23">
        <rect
           x="-2464"
           y="-1755"
           width="1866"
           height="1820"
           id="rect23" />
      </g>
    </clipPath>
    <clipPath
       clipPathUnits="userSpaceOnUse"
       id="clipPath23">
      <g
         id="g24">
        <rect
           x="-2464"
           y="-1755"
           width="1866"
           height="1820"
           id="rect24" />
      </g>
    </clipPath>
    <clipPath
       clipPathUnits="userSpaceOnUse"
       id="clipPath24">
      <g
         id="g25">
        <rect
           x="-2464"
           y="-1755"
           width="1866"
           height="1820"
           id="rect25" />
      </g>
    </clipPath>
    <clipPath
       clipPathUnits="userSpaceOnUse"
       id="clipPath25">
      <g
         id="g26">
        <rect
           x="-2464"
           y="-1755"
           width="1866"
           height="1820"
           id="rect26" />
      </g>
    </clipPath>
    <clipPath
       clipPathUnits="userSpaceOnUse"
       id="clipPath26">
      <g
         id="g27">
        <rect
           x="-2464"
           y="-1755"
           width="1866"
           height="1820"
           id="rect27" />
      </g>
    </clipPath>
    <clipPath
       clipPathUnits="userSpaceOnUse"
       id="clipPath27">
      <g
         id="g28">
        <rect
           x="-2464"
           y="-1755"
           width="1866"
           height="1820"
           id="rect28" />
      </g>
    </clipPath>
    <clipPath
       clipPathUnits="userSpaceOnUse"
       id="clipPath28">
      <g
         id="g29">
        <rect
           x="-2464"
           y="-1755"
           width="1866"
           height="1820"
           id="rect29" />
      </g>
    </clipPath>
    <clipPath
       clipPathUnits="userSpaceOnUse"
       id="clipPath29">
      <g
         id="g30">
        <rect
           x="-2464"
           y="-1755"
           width="1866"
           height="1820"
           id="rect30" />
      </g>
    </clipPath>
    <clipPath
       clipPathUnits="userSpaceOnUse"
       id="clipPath30">
      <g
         id="g31">
        <rect
           x="-2464"
           y="-1755"
           width="1866"
           height="1820"
           id="rect31" />
      </g>
    </clipPath>
    <clipPath
       clipPathUnits="userSpaceOnUse"
       id="clipPath31">
      <g
         id="g32">
        <rect
           x="-2464"
           y="-1755"
           width="1866"
           height="1820"
           id="rect32" />
      </g>
    </clipPath>
    <clipPath
       clipPathUnits="userSpaceOnUse"
       id="clipPath32">
      <g
         id="g33">
        <rect
           x="-2464"
           y="-1755"
           width="1866"
           height="1820"
           id="rect33" />
      </g>
    </clipPath>
    <clipPath
       clipPathUnits="userSpaceOnUse"
       id="clipPath33">
      <g
         id="g34">
        <rect
           x="-2464"
           y="-1755"
           width="1866"
           height="1820"
           id="rect34" />
      </g>
    </clipPath>
    <clipPath
       clipPathUnits="userSpaceOnUse"
       id="clipPath34">
      <g
         id="g35">
        <rect
           x="-2464"
           y="-1755"
           width="1866"
           height="1820"
           id="rect35" />
      </g>
    </clipPath>
    <clipPath
       clipPathUnits="userSpaceOnUse"
       id="clipPath35">
      <g
         id="g36">
        <rect
           x="-2464"
           y="-1755"
           width="1866"
           height="1820"
           id="rect36" />
      </g>
    </clipPath>
    <clipPath
       clipPathUnits="userSpaceOnUse"
       id="clipPath36">
      <g
         id="g37">
        <rect
           x="-2464"
           y="-1755"
           width="1866"
           height="1820"
           id="rect37" />
      </g>
    </clipPath>
    <clipPath
       clipPathUnits="userSpaceOnUse"
       id="clipPath37">
      <g
         id="g38">
        <rect
           x="-2464"
           y="-1755"
           width="1866"
           height="1820"
           id="rect38" />
      </g>
    </clipPath>
    <clipPath
       clipPathUnits="userSpaceOnUse"
       id="clipPath38">
      <g
         id="g39">
        <rect
           x="-2464"
           y="-1755"
           width="1866"
           height="1820"
           id="rect39" />
      </g>
    </clipPath>
    <clipPath
       clipPathUnits="userSpaceOnUse"
       id="clipPath39">
      <g
         id="g40">
        <rect
           x="-2464"
           y="-1755"
           width="1866"
           height="1820"
           id="rect40" />
      </g>
    </clipPath>
  </defs>
  <g
     inkscape:label="Layer 1"
     inkscape:groupmode="layer"
     id="layer1">
    <g
       id="g41"
       transform="matrix(1.1452475,0,0,1.1452475,227.63474,-215.59585)"
       inkscape:export-filename="EffectBlocks_icons\icons.png"
       inkscape:export-xdpi="96"
       inkscape:export-ydpi="96">
      <path
         d="m -2298,-1678.087 38.547,-62.913 66.08,42.466 72.373,29.884 -7.08,22.805 -52.707,-21.233 -5.506,7.864 42.48,33.03 -15.734,25.951 -47.986,-44.039 -7.08,8.651 33.04,47.971 -16.52,8.65 -48.774,-58.981 z"
         fill="#ffffff"
         fill-rule="evenodd"
         id="path1"
         clip-path="url(#clipPath39)"
         transform="matrix(0.53155143,0,0,0.53155143,223.99396,694.42905)" />
      <path
         d="m -2190,-1568.086 18.87,25.086 60.542,-42.333 23.588,-79.179 -22.802,-5.488 -22.015,59.58 z"
         fill="#ffffff"
         fill-rule="evenodd"
         id="path2"
         clip-path="url(#clipPath38)"
         transform="matrix(0.53155143,0,0,0.53155143,223.99396,694.42905)" />
      <path
         d="m -2461,-1417.017 2.3523,30.659 39.2045,2.358 40.7732,-74.682 34.5,-31.445 12.545,-34.59 60.375,-79.399 17.25,-11.792 -45.477,-40.092 -2.353,29.873 -52.534,76.254 -32.931,29.873 -13.33,35.376 z"
         fill="#ffffff"
         fill-rule="evenodd"
         id="path3"
         clip-path="url(#clipPath37)"
         transform="matrix(0.53155143,0,0,0.53155143,223.99396,694.42905)" />
      <path
         d="m -2230,-1741.617 39,23.617 -7.163,-37 z"
         fill="#ffffff"
         fill-rule="evenodd"
         id="path4"
         clip-path="url(#clipPath36)"
         transform="matrix(0.53155143,0,0,0.53155143,223.99396,694.42905)" />
    </g>
    <path
       d="m -1721.831,-1635.353 45.659,40.144 -17.319,11.807 -60.617,79.502 -12.595,34.635 -34.638,31.486 -40.936,74.779 -39.361,-2.361 -2.362,-30.699 60.616,-67.695 13.383,-35.422 33.064,-29.911 52.744,-76.354 z m 103.52,-80.2896 7.085,36.9956 -38.574,-23.614 z m -223.048,-39.3574 110.999,16.5302 50.383,37.7831 11.021,-7.0843 64.552,53.526 -5.51,11.807 48.808,64.546 18.106,78.715 -62.191,-74.779 -42.51,-19.679 9.447,-11.02 24.404,16.531 -29.128,-49.591 -23.616,34.635 -50.383,-35.422 28.34,-43.293 -37.787,-12.5945 21.255,27.5505 -18.893,11.807 -43.297,-51.9519 z"
       fill="#ffffff"
       fill-rule="evenodd"
       id="path5"
       clip-path="url(#clipPath35)"
       transform="matrix(0.57917483,0,0,0.57917483,606.4104,522.49345)"
       inkscape:export-filename="pickaxe.png"
       inkscape:export-xdpi="96"
       inkscape:export-ydpi="96" />
    <g
       id="g44"
       transform="matrix(1.1281882,0,0,1.1281882,814.45863,-786.22459)"
       inkscape:export-filename="dualsword.png"
       inkscape:export-xdpi="96"
       inkscape:export-ydpi="96">
      <path
         d="m -1256.47,-542.89 -17.53,-12.03 10.12,-26.08 30.35,7.35 -4.05,16.72 20.23,25.41 14.84,29.42 15.51,3.34 -3.37,32.76 -29,-8.69 3.37,-21.4 -18.21,-20.06 z"
         fill="#ffffff"
         fill-rule="evenodd"
         id="path6"
         clip-path="url(#clipPath34)"
         transform="matrix(0.53155143,0,0,0.53155143,223.99396,694.42905)" />
      <path
         d="m -1302,-501.5 2.67,26.12 18,9.38 43.33,-28.81 -21.33,-40.19 z"
         fill="#ffffff"
         fill-rule="evenodd"
         id="path7"
         clip-path="url(#clipPath33)"
         transform="matrix(0.53155143,0,0,0.53155143,223.99396,694.42905)" />
      <path
         d="m -1223,-557.03 26.23,33.03 49.77,-33.03 -35.65,-26.97 z"
         fill="#ffffff"
         fill-rule="evenodd"
         id="path8"
         clip-path="url(#clipPath32)"
         transform="matrix(0.53155143,0,0,0.53155143,223.99396,694.42905)" />
      <path
         d="m -1125,-630.3 70.41,-69.36 58.22,-100.34 24.37,77.44 -39.94,67.34 -73.12,55.22 z"
         fill="#ffffff"
         fill-rule="evenodd"
         id="path9"
         clip-path="url(#clipPath31)"
         transform="matrix(0.53155143,0,0,0.53155143,223.99396,694.42905)" />
      <path
         d="m -1050,-559 -90.32,-62.6 -76.17,-74.05 -57.96,-106.35 -19.55,84.14 54.6,74.04 66.05,51.16 96.39,68.66 z"
         fill="#ffffff"
         fill-rule="evenodd"
         id="path10"
         clip-path="url(#clipPath30)"
         transform="matrix(0.53155143,0,0,0.53155143,223.99396,694.42905)" />
      <path
         d="m -1069.03,-502.69 -14.97,12.14 8.84,17.55 25.86,-2.02 -3.4,-18.23 25.85,-26.99 10.2,-25.64 15.65,-8.1 -5.44,-29.02 -25.86,8.77 v 18.9 l -23.81,26.32 z"
         fill="#ffffff"
         fill-rule="evenodd"
         id="path11"
         clip-path="url(#clipPath29)"
         transform="matrix(0.53155143,0,0,0.53155143,223.99396,694.42905)" />
      <path
         d="m -1032,-495.47 24.36,-35.53 42.64,29.49 -2.71,25.48 -18.27,6.03 z"
         fill="#ffffff"
         fill-rule="evenodd"
         id="path12"
         clip-path="url(#clipPath28)"
         transform="matrix(0.53155143,0,0,0.53155143,223.99396,694.42905)" />
    </g>
    <g
       id="g42"
       transform="matrix(1.1191862,0,0,1.1191862,283.48744,-234.13171)"
       inkscape:export-filename="hammer.png"
       inkscape:export-xdpi="96"
       inkscape:export-ydpi="96">
      <path
         d="m -2141,-1385.832 2.102,28.63 35.038,2.202 36.44,-69.74 30.833,-29.364 11.212,-32.301 53.958,-74.144 15.417,-11.012 -40.644,-37.439 -2.102,27.896 -46.951,71.208 -29.432,27.896 -11.913,33.035 z"
         fill="#ffffff"
         fill-rule="evenodd"
         id="path13"
         clip-path="url(#clipPath27)"
         transform="matrix(0.53155143,0,0,0.53155143,223.99396,694.42905)" />
      <path
         d="m -1917.479,-1696.2753 35.939,27.4533 -3.244,-37.5282 z"
         fill="#ffffff"
         fill-rule="evenodd"
         id="path14"
         clip-path="url(#clipPath26)"
         transform="matrix(0.53155143,0,0,0.53155143,223.99396,694.42905)" />
      <path
         d="m -2053.842,-1646.473 30.036,24.455 15.595,-11.134 41.111,37.717 47.166,37.096 -8.226,16.318 30.287,25.149 49.9,-48.657 29.728,-52.349 -29.726,-21.428 -14.96,8.55 -37.449,-40.611 -48.938,-33.3163 6.336,-17.2038 -24.675,-24.8244 -49.206,48.4059 z"
         fill="#ffffff"
         fill-rule="evenodd"
         id="path15"
         clip-path="url(#clipPath25)"
         transform="matrix(0.53155143,0,0,0.53155143,223.99396,694.42905)" />
    </g>
    <path
       d="m -1374.02,-55.76 31.33,4.92 14.16,-16.74 -10.54,-22.98 -12.39,13.22 12.34,7.97 -20.75,3.05 z m -69.16,-65.93 11.45,11.5 42.03,-41.84 6.17,6.19 -46,38.75 14.1,12.39 39.83,-44.06 7.04,7.97 -42.47,42.28 9.68,13.26 50,-50.65 -42.73,-42.92 z m 147.01,-201.85 51.09,50.44 -67.69,70.03 7.46,19.89 -35.4,35.23 29.95,30.09 -9.31,20.72 5.66,33.12 -32.3,31.28 -33.97,-9.35 5.27,14.14 -11.95,14.54 40.08,41.14 -67.63,36.49 -40.46,-65.42 12.5,-62.66 -18.04,-25.2 -24.29,1.27 1.8,-14.13 17.23,-4.81 -1.27,-26.05 70.79,-67.83 14.55,7.54 84.95,-85.45 -10.09,-27.83 z"
       fill="#ffffff"
       fill-rule="evenodd"
       id="path16"
       clip-path="url(#clipPath24)"
       transform="matrix(0.6064041,0,0,0.6064041,696.33977,718.19063)"
       inkscape:export-filename="pistol.png"
       inkscape:export-xdpi="96"
       inkscape:export-ydpi="96" />
    <g
       id="g43"
       transform="matrix(1.0715864,0,0,1.0715864,606.62257,-241.41366)"
       inkscape:export-filename="sword.png"
       inkscape:export-xdpi="96"
       inkscape:export-ydpi="96">
      <path
         d="m -1318.838,-1464.4028 62.1139,-81.714 46.2399,-87.8038 20.7483,-111.2816 41.6606,69.1715 -27.089,81.5819 -43.8738,64.5396 -65.75,88.8496 z"
         fill="#ffffff"
         fill-rule="evenodd"
         id="path17"
         clip-path="url(#clipPath23)"
         transform="matrix(0.53155143,0,0,0.53155143,223.99396,694.42905)" />
      <path
         d="m -1285.7485,-1419.5751 16.6664,6.495 -2.7247,18.0885 -23.3257,5.593 -2.2575,-17.1313 -30.5197,-16.5506 -16.3658,-19.8257 -16.0984,-2.7097 -3.5729,-27.2902 25.2699,0.3916 5.4443,16.7574 28.5299,16.5355 z"
         fill="#ffffff"
         fill-rule="evenodd"
         id="path18"
         clip-path="url(#clipPath22)"
         transform="matrix(0.53155143,0,0,0.53155143,223.99396,694.42905)" />
      <path
         d="m -1316.5248,-1402.2975 -31.8506,-24.7197 -29.149,38.5827 9.7826,21.9645 17.9089,0.1365 z"
         fill="#ffffff"
         fill-rule="evenodd"
         id="path19"
         clip-path="url(#clipPath21)"
         transform="matrix(0.53155143,0,0,0.53155143,223.99396,694.42905)" />
    </g>
    <path
       d="m -1153.0858,-1468.1842 -48.1902,71.3916 6.4837,30.0106 34.6073,-5.4317 48.784,-73.2582 -38.984,11.438 z m 59.0421,-86.7175 -25.7804,10.5793 -24.6793,51.7444 0.7339,44.2099 42.3089,-12.8455 56.5706,-74.4804 44.501,29.3621 -30.6138,-49.6244 z m 107.21293,-185.1778 -30.57553,23.6578 -4.1699,29.9092 14.2845,11.942 -14.2812,33.2691 -16.0466,22.0212 -37.6978,48.3773 49.3783,7.2493 69.30632,-93.1595 43.65112,12.6522 54.53046,65.0212 28.32253,95.7292 0.007,-107.2684 -32.85013,-73.7425 -49.16755,-48.5041 z m 45.62736,-10.4651 -16.61931,13.2978 41.31731,12.611 -0.11572,-21.7885 z"
       fill="#ffffff"
       fill-rule="evenodd"
       id="path20"
       clip-path="url(#clipPath20)"
       transform="matrix(0.58708996,0,0,0.58708996,470.05044,527.72718)"
       inkscape:export-filename="scythe.png"
       inkscape:export-xdpi="96"
       inkscape:export-ydpi="96" />
    <path
       d="m -696.23,-1638.46 28.56,-19.619 -46.86,-40.3196 -15.85,26.5866 z m 28.98,31.782 -47.83,-4.936 -34.9,-30.261 -10.99,-45.4424 36.31,-46.5127 60.84,27.0068 35.63,50.3693 z m -239.97,187.191 32.6,-7.865 -22.8,-7.103 -9.18,-24.42 z m 42.71,73.962 -102.89,-0.169 -15.93,-102.503 45.41,-46.291 36.45,-56.61 37.98,31.002 -16.38,40.449 25.52,-28.129 102.41,-121.826 23.27,24.207 -28.26,57.919 -35.74,18.223 -60.82,71.551 39.69,-24.336 36.64,27.085 z"
       fill="#ffffff"
       fill-rule="evenodd"
       id="path21"
       clip-path="url(#clipPath19)"
       transform="matrix(0.5925062,0,0,0.5925062,-418.81802,1038.3772)"
       inkscape:export-filename="shovel.png"
       inkscape:export-xdpi="96"
       inkscape:export-ydpi="96" />
    <path
       d="m -1156.65,-10.14 -35.98,9.53 -6.61,-4.4 -16.89,8.07 29.37,5.87 z m -65.35,-38.88 -16.16,13.21 6.61,18.33 22.03,3.67 -12.48,-10.27 z m 83.71,-0.73 -27.91,30.07 16.89,-4.4 z m -14.26,-46.37 -1.9,4.56 -39.65,14.67 -14.69,30.07 13.95,27.14 23.5,-9.53 19.09,-26.41 8.44,-33.12 z m -14.24,-15.97 -5.28,3.66 -24.23,1.47 -30.85,17.6 -3.67,12.47 -22.03,13.94 6.61,15.4 35.25,-41.81 47.99,-16.92 z m 156.26,-65.29 -33.77,35.21 27.16,-11 z m -29.37,-37.41 -13.22,14.67 -9.54,-0.73 -16.16,22 -4.93,20.83 5.33,7.51 34.12,-10.73 29.37,-23.47 4.4,-16.87 z m 49.2,-5.13 -8.81,17.6 6.61,8.8 -8.08,28.61 18.36,-28.61 -3.67,-25.67 z m -41.86,-19.81 -25.7,24.21 21.3,-10.27 22.76,2.93 7.35,12.47 -2.21,-23.47 z m -16.15,-17.6 -19.83,21.27 -11.75,0.73 -16.88,29.34 -2.94,27.14 -5.57,5.94 5.36,3.6 16.36,-46.21 48.47,-38.88 z m -15.42,-14.67 46.26,2.2 12.48,18.34 h 10.28 l 30.11,39.61 -19.83,54.28 -47.73,31.54 -28.88,-0.56 6.12,8.62 -18.36,8.81 -27.9,-26.41 22.76,33.01 -4.4,7.33 -12.49,-8.07 11.02,11.74 -15.42,5.87 -18.36,-9.54 20.56,22.01 -20.56,5.87 -1.9,-1.61 1.17,30.95 -31.58,47.67 -58.74,18.34 -40.39,-29.34 3.67,-10.27 -22.76,-20.54 1.47,-41.07 52.13,-43.28 41.97,-5.78 -8.19,-12.56 12.48,-5.13 18.36,13.94 -12.48,-27.14 13.95,-2.94 35.25,30.81 -2.21,-12.47 -27.16,-19.07 5.14,-11 16.15,13.93 -11.75,-20.53 11.75,-9.54 7.38,4.96 8.77,-42.37 z"
       fill="#ffffff"
       fill-rule="evenodd"
       id="path22"
       clip-path="url(#clipPath18)"
       transform="matrix(0.73054069,0,0,0.73054069,173.87229,473.71747)"
       inkscape:export-filename="rope.png"
       inkscape:export-xdpi="96"
       inkscape:export-ydpi="96" />
    <path
       d="m -843.53,-533.23 -28.42,2.36 -7.89,34.65 29.21,16.53 22.89,-22.83 -2.37,-23.62 z m 49.74,-226.77 18.95,20.47 -28.42,48.82 56.05,54.33 45,-38.58 v -37.8 l 32.37,-25.19 32.37,7.08 -30,38.59 17.36,20.47 39.48,-35.43 4.74,41.73 -31.58,25.2 -41.85,-5.52 -30.79,40.95 101.06,99.21 11.05,20.47 -20.53,22.84 -22.89,-1.58 -105.79,-114.17 -59.21,51.97 3.95,37.79 -41.85,28.35 -36.31,-1.57 -22.9,-29.93 2.37,-39.37 25.27,-31.49 45.78,3.93 53.69,-48.03 -52.11,-59.84 -30,34.65 -54.47,-27.56 45,-40.16 -7.11,-22.05 16.58,-16.53 16.58,9.45 z"
       fill="#ffffff"
       fill-rule="evenodd"
       id="path23"
       clip-path="url(#clipPath17)"
       transform="matrix(0.67311018,0,0,0.67311018,632.6777,539.68767)"
       inkscape:export-filename="mechanic.png"
       inkscape:export-xdpi="96"
       inkscape:export-ydpi="96" />
    <path
       d="m -888.71,-997.208 10.87,20.843 -16.71,-5.836 35.92,25.845 -13.37,8.338 -11.69,-14.174 -9.19,11.672 -28.41,-6.669 -1.67,-34.183 z M -627.2,-1269 l 5.83,12.927 1.69,-0.421 -0.04,4.081 0.04,0.087 -0.04,0.018 -2.47,254.266 9.19,10.839 -5.85,10.838 -3.34,42.52 -24.23,13.339 -22.56,-21.676 -0.83,-34.183 19.21,22.511 -9.19,1.667 7.52,10.005 h 20.89 l 3.34,-26.679 -10.02,-10.005 6.68,-18.342 v -227.605 l -36.76,35.016 -57.65,19.176 -41.77,57.526 -39.27,20.01 -25.06,58.36 -36.76,41.686 -10.86,-6.67 35.92,-45.021 24.23,-50.857 -2.51,-5.836 8.36,-10.838 4.17,5.002 43.45,-24.177 21.72,-48.356 10.86,-5.836 5.85,0.834 55.98,-18.342 42.61,-37.518 -0.48,-7.596 -49.65,20.936 -73.52,49.189 -83.55,84.206 -35.93,50.857 -22.55,38.351 -31.75,8.337 -0.84,33.349 -53.47,55.025 -23.39,-20.843 86.89,-96.711 -2.51,-4.169 23.4,-35.016 7.51,-0.834 61.83,-72.533 90.23,-76.702 z"
       fill="#ffffff"
       fill-rule="evenodd"
       id="path24"
       clip-path="url(#clipPath16)"
       transform="matrix(0.53155143,0,0,0.53155143,39.962159,969.68436)"
       inkscape:export-filename="fishing.png"
       inkscape:export-xdpi="96"
       inkscape:export-ydpi="96" />
    <path
       d="m -677.0009,-57.1 -9.7707,27.289 -16.2844,-10.085 10.9549,-16.611 z m -31.3851,-1.483 -7.402,17.501 -25.463,1.779 14.508,-17.5 z m -50.334,-11.271 20.134,7.415 -16.581,24.916 -22.502,-11.568 z m -32.272,-12.755 20.429,7.416 -19.245,23.432 -38.491,-5.339 z m 133.7752,-10.634 -11.8822,21.706 -9.7852,-0.7 z m -34.8843,-1.824 16.8767,1.483 -24.8709,25.213 -15.9887,-0.89 z m -27.2399,-5.932 13.028,2.67 -25.463,27.585 -15.988,-8.602 z m -89.416,-5.636 7.994,13.348 -36.714,26.992 -5.33,-30.551 z m 62.769,-5.932 15.988,5.042 -31.976,23.73 -15.101,-8.305 z m 80.3838,-12.886 19.5705,0.7 -11.8821,18.206 -20.2695,-2.801 z m -10.2124,-3.131 -20.1336,19.873 -4.7373,-2.373 z m -89.1204,-5.933 8.29,13.645 -32.273,21.059 -8.586,-13.94 z m -60.697,-4.152 11.251,20.466 -32.865,9.789 -11.843,-25.509 z m 117.544,-0.297 21.0223,5.043 -26.3513,19.873 -18.653,-8.009 z m 82.3258,-24.298 -7.6885,23.807 h -20.2694 l 11.1831,-21.006 z m -158.7148,-0.914 10.955,18.39 -29.608,21.356 -11.843,-19.576 z m 54.479,-0.297 13.028,16.314 -30.792,21.653 -8.291,-15.424 z m 55.9599,-10.382 12.7315,7.416 -8.8825,26.695 -27.8317,-8.898 z m -154.8509,-7.712 0.888,30.255 -31.977,5.043 9.179,-31.145 z m 80.534,-13.3473 11.548,18.9833 -25.76,23.73 -12.731,-20.17 z m 54.1833,-3.5594 9.1786,18.6867 -23.3909,26.399 -11.843,-19.577 z m 41.8495,-9.3021 -2.7958,30.8088 -13.979,-6.3014 z m -135.1148,-0.1896 c -0.099,10.3816 -0.198,20.7632 -0.297,31.1444 l -28.719,19.874 1.184,-33.2214 z m 159.578,-4.7118 6.9894,35.7102 -15.3768,0.701 z m -238.632,-9.5258 38.49,1.1865 -0.888,24.0259 -23.983,6.8222 z m 156.035,-4.4492 9.7705,15.7206 -26.6475,25.8057 -11.547,-19.5767 z m -76.389,-10.6782 -0.592,8.6018 -28.424,24.9158 c 0.098,-7.4154 0.197,-14.8308 0.296,-22.2462 z m 131.727,-0.5544 -20.2695,46.2139 -9.7853,-15.4047 z m -85.835,-7.1577 -6.809,32.0346 -27.24,24.6192 c -0.099,-10.6782 -0.197,-21.3564 -0.296,-32.0346 z m 74.6518,-0.5446 -23.7642,23.8072 -11.8821,-11.9036 z m -40.8978,-11.6167 -5.626,18.0937 -18.357,11.568 5.922,-25.2124 z m -29.016,-5.0424 -39.083,26.1022 0.296,-10.9748 z m 42.6549,-0.1459 18.8716,3.501 -21.6674,9.803 z M -896.956,-283 l -34.947,4.20126 3.495,41.31234 29.355,-3.501 16.076,13.304 20.969,44.1132 -11.883,30.1092 -15.376,-3.501 -11.184,-26.6082 -33.549,10.5032 9.086,36.411 31.453,-8.403 18.872,7.703 19.57,35.01 3.495,48.315 -16.076,12.603 -23.065,-7.002 -11.183,32.21 34.947,6.302 8.387,-24.508 16.775,-11.903 48.926,4.201 28.657,17.505 -7.688,23.107 -20.969,16.105 10.485,22.407 32.151,-9.103 -9.785,-30.809 6.989,-16.805 26.56,-9.103 38.4425,9.803 -2.0969,24.507 -17.4736,23.808 29.3557,21.706 20.9685,-27.308 -18.1727,-16.805 4.1937,-43.413 40.5389,-60.918 28.6569,-76.323 -11.8821,-69.321 -47.5284,-34.31029 -95.0565,6.30189 -94.358,39.9119 -38.442,-20.306 z"
       fill="#ffffff"
       fill-rule="evenodd"
       id="path25"
       clip-path="url(#clipPath15)"
       transform="matrix(0.61416967,0,0,0.61416967,333.57861,461.65843)"
       inkscape:export-filename="fishingnet.png"
       inkscape:export-xdpi="96"
       inkscape:export-ydpi="96" />
    <path
       d="m -1456.17,-994.016 -9.96,7.738 -6.64,18.792 59.74,54.166 21.02,-21.003 z m 13.27,-49.744 100.68,101.699 -53.11,53.061 -30.97,-4.422 -69.7,-71.853 3.319,-30.952 z m 188.07,-191.24 39.83,58.588 -19.91,11.054 5.53,21.003 -19.92,9.949 3.32,19.898 -22.12,7.738 5.53,22.109 -28.76,6.632 12.16,26.531 -22.12,-1.106 5.53,25.425 -22.13,3.316 4.43,24.32 -18.81,6.632 4.43,24.32 -19.92,3.316 -70.8,-78.485 v -23.214 z"
       fill="#ffffff"
       fill-rule="evenodd"
       id="path26"
       clip-path="url(#clipPath14)"
       transform="matrix(0.66621701,0,0,0.66621701,517.82076,833.85173)"
       inkscape:export-filename="saw.png"
       inkscape:export-xdpi="96"
       inkscape:export-ydpi="96" />
    <path
       d="m -2316.007,-214.04 42.686,36.4 -64.291,92.19 -75.6847,106.95 -40.2569,3.63 -10.1795,-36.5 66.4594,-101.42 z m 22.095,-46.08 11.192,3.68 38.088,29.37 -9.052,6.7 -33.518,-26.49 z m 5.264,-16.23 -12.349,8.38 -1.533,17.46 48.586,40.27 19.868,-9.5 -9.023,-24.79 z m -11.539,-29.77 43.93,24.93 -1.765,7.99 39.881,25.54 53.098,-72.1 3.036,67.88 -53.069,76.24 -31.928,0.02 -83.636,-61.19 -1.996,-25.25 z m 32.969,-28.69 65.533,-8.59 -48.152,57.69 -41.298,-27.11 z"
       fill="#ffffff"
       fill-rule="evenodd"
       id="path27"
       clip-path="url(#clipPath13)"
       transform="matrix(0.61260349,0,0,0.61260349,1795.638,227.88609)"
       inkscape:export-filename="spanner.png"
       inkscape:export-xdpi="96"
       inkscape:export-ydpi="96" />
    <path
       d="m -1099.24,-983.091 -30.31,38.968 30.99,27.08 3.36,-6.862 -24.42,-19.884 3.21,-4.944 25.06,22.087 2.01,-8.602 -22.65,-17.815 4.14,-3.535 24.09,20.303 1.44,-7.013 -21.44,-17.2 2.5,-4.48 22.97,20.438 3.36,-6.863 -22.7,-18.189 1.94,-2.892 24.37,19.509 4.49,-6.997 z m -56.36,-7.324 -9.93,9.168 -0.44,12.214 10.91,8.578 11.17,-5.136 2.13,-13.937 z m 23.27,-18.364 -12.1,3.727 -0.91,11.509 8.11,7.393 10.97,-3.592 3.24,-11.03 z m 72.17,-25.731 -30.31,38.968 30.98,27.081 3.37,-6.863 -24.43,-19.884 3.21,-4.944 25.07,22.087 2.01,-8.602 -22.65,-17.814 4.14,-3.535 24.09,20.303 1.44,-7.014 -21.44,-17.199 2.5,-4.48 22.97,20.437 3.36,-6.862 -22.7,-18.19 1.94,-2.891 24.37,19.509 4.49,-6.997 z m -130.15,-55.509 -28.73,33.078 3.91,20.055 22.16,13.693 5.7,-6.382 -5.39,-6.956 25.45,-31.927 4.24,3.674 7.3,-8.854 -20.98,-16.495 z m 217.34,-108.456 -18.65,12.491 -43.32,57.246 -32.29,41.485 8.39,6.599 32.14,-39.567 20.14,-28.632 25.13,-25.047 19.29,-10.288 11.09,10.076 1.13,15.827 -37.4,43.237 -44.37,61.173 12.17,0.065 43.46,-56.123 37.03,-46.234 0.97,-23.679 -13.49,-14.348 z m 5.35,-18.882 6.47,6.448 11.67,-4.057 5.14,11.168 9.14,-2.993 4.84,15.004 7.52,2.521 -2.22,13.188 6.51,6.822 -6.46,9.514 3.65,8.304 -10.79,5.091 0.1,16.711 -11.48,2.512 1.22,7.075 -15.24,6.003 2.37,10.357 -12.98,2.692 -0.68,13.383 -8.79,-0.468 -2.66,15.9 -9.37,1.12 -0.66,10.341 -10.83,1.673 2.28,12.651 -12.88,0.398 -0.15,11.421 -24.35,-18.707 -2.81,5.685 26.27,21.489 10.66,28.75 -63.03,83.166 -31.14,38.308 -26.22,9.595 -31.05,-14.911 -9.41,-34.22 8.04,-15.403 -47.43,-40.696 -3.78,-28.432 7.32,-11.896 -26.89,-21.489 -4.26,-26.094 43.56,-48.914 39.49,28.343 20.54,-15.757 27.25,-0.977 26.86,21.974 3.18,-3.762 -17.71,-13.606 9.71,-4.582 -1.87,-9.278 10.3,0.29 -2.05,-10.777 9.94,-2.708 -1.17,-9.742 13.43,1.055 -3.09,-16.353 17.19,-2.435 -1.53,-12.74 9.42,-0.745 1.71,-14.267 9.28,-1.869 0.15,-11.42 11.2,-1.719 -2.56,-11.856 16.31,-3.47 6.22,-8.345 6.54,3.78 z"
       fill="#ffffff"
       fill-rule="evenodd"
       id="path28"
       clip-path="url(#clipPath12)"
       transform="matrix(0.62809342,0,0,0.62809342,547.57181,785.6352)"
       inkscape:export-filename="chainsaw.png"
       inkscape:export-xdpi="96"
       inkscape:export-ydpi="96" />
    <path
       d="m -1566.62,-1403.213 33.768,19.564 -39.869,63.081 -31.058,5.925 -6.662,-40.091 18.443,-17.56 z m 130.49,-183.424 18.3,41.209 -41.61,75.577 -45.183,44.891 -20.43,33.149 -37.48,-18.948 82.573,-104.509 z m 47.1,-166.5125 60.25,13.6381 52.19,43.2048 -2.24,18.6816 -28.08,-12.8808 19.04,27.3528 -11.88,6.551 -21.64,-29.209 -52.69,-27.863 -35.77,18.9132 0.98,37.9838 26.09,28.47 -9.43,44.289 -22.28,26.59 -16.44,-34.651 8.3,-14.348 -25.23,-27.85 -7.9,-38.359 16.85,-54.6783 z"
       fill="#ffffff"
       fill-rule="evenodd"
       id="path29"
       clip-path="url(#clipPath11)"
       transform="matrix(0.53155143,0,0,0.53155143,133.32489,943.76452)"
       inkscape:export-filename="cowbar.png"
       inkscape:export-xdpi="96"
       inkscape:export-ydpi="96" />
    <path
       d="m -2301.092,-1045.939 -11.217,-14.266 80.61,-128.436 -89.342,128.846 z m 32.783,53.372 -25.055,-5.484 -5.165,-18.861 -13.564,-6.884 -9.378,2.882 -41.459,-28.549 0.43,-8.106 -17.119,-13.055 -14.8028,0.128 -11.7979,-10.901 -1.9173,-24.99 21.436,-8.088 22.091,9.711 -0.576,14.309 13.501,9.377 32.362,-61.29 51.897,-59.767 80.79,-50.015 -14.688,71.148 -38.237,77.754 -53.317,63.014 5.785,4.018 23.929,2.593 11.085,20.91 z m -137.779,87.821 -31.2811,-19.835 -3.212,-35.883 10.8991,-12.455 38.7576,17.326 -32.9493,-23.964 1.8144,-2.073 -6.4777,-8.747 14.6017,-11.83 11.8711,7.8 -0.023,-14.204 18.2704,-15.563 -1.19,-10.293 18.408,-11.263 42.658,28.339 -5.242,29.954 -15.791,1.537 -0.365,15.508 -13.541,7.319 10.211,12.415 -12.772,15.216 -6.972,-8.042 -14.935,31.038 z"
       fill="#ffffff"
       fill-rule="evenodd"
       id="path30"
       clip-path="url(#clipPath10)"
       transform="matrix(0.63697197,0,0,0.63697197,573.89074,559.14074)"
       inkscape:export-filename="dagger.png"
       inkscape:export-xdpi="96"
       inkscape:export-ydpi="96" />
    <path
       d="m -2138.926,-1008.889 -31.235,33.642 -22.86,42.455 37.788,-41.775 z m 144.597,-121.825 -14.704,6.724 -4.312,13.034 16.964,-6.967 z m -8.23,-49.967 -40.953,49.543 -22.235,42.958 51.557,-67.824 z m 59.314,9.62 -23.845,1.421 -15.22,-24.646 15.184,34.935 z m -4.246,-76.678 35.203,51.065 -8.472,54.049 -39.49,25.959 -31.272,43.93 -64.294,50.339 39.053,-8.771 18.318,0.315 -13.264,25.424 -25.497,7.313 -66.444,19.716 -86.146,91.542 -25.879,9.068 -17.911,-44.355 45.161,-68.85 2.175,-11.661 72.188,-83.185 22.01,-50.362 37.267,-36.004 21.645,-53.751 29.894,-8.929 14.114,-17.516 z"
       fill="#ffffff"
       fill-rule="evenodd"
       id="path31"
       clip-path="url(#clipPath9)"
       transform="matrix(0.60158901,0,0,0.60158901,342.82755,1023.266)"
       inkscape:export-filename="club.png"
       inkscape:export-xdpi="96"
       inkscape:export-ydpi="96" />
    <path
       d="m -2173.3084,-652.987 15.4388,33.834 11.7628,44.132 28.672,41.189 -100.7192,13.975 -98.514,13.239 34.553,-37.511 42.641,-17.653 26.466,-50.015 z m -158.7986,-96.3528 45.581,32.3629 74.253,27.2139 -36.759,38.248 -44.846,14.71 -29.407,61.048 -30.142,29.421 16.174,-102.237 z m 18.38,-42.6602 -9.77,9.34931 -8.61,-8.6138 -16.909,18.38809 5.146,8.0907 -27.201,235.3667 -41.905,45.602 -24.261,-5.884 -11.763,11.033 19.85,43.396 42.64,24.272 16.909,-19.859 -9.557,-14.71 48.522,-50.751 229.3751,-24.273 9.5574,6.62 14.7035,-13.975 -7.6385,-8.055 7.6385,-14.011 -7.3518,-8.826 -11.5271,10.984 -8.3227,-8.777 -19.8498,-38.983 -8.8221,-42.66 -18.3795,-33.099 19.8498,-20.594 -11.0381,-9.6629 -170.5507,166.3289 -14.601,9.1 193.2491,-195.1869 18.3795,-3.6777 17.6442,-38.247 -36.7589,13.9749 -5.1462,19.859 -199.2147,194.3557 23.507,-35.483 153.4251,-148.5904 -10.0652,-8.8112 -20.5849,13.2394 -8.822,-9.5619 -47.052,-13.2393 -45.581,-16.1815 -17.952,-17.9604 7.66,-12.93147 z"
       fill="#ffffff"
       fill-rule="evenodd"
       id="path32"
       clip-path="url(#clipPath8)"
       transform="matrix(0.58938026,0,0,0.58938026,1460.7085,229.59015)"
       inkscape:export-filename="crossbow.png"
       inkscape:export-xdpi="96"
       inkscape:export-ydpi="96" />
    <path
       d="m -1723,-760 -30.861,72.66 -35.519,2.33 -99.425,100.71 99.535,95.18 19.105,-4.64 -7.569,-115.68 -33.772,-5.81 -19.295,-16.54 13.985,-17 16.955,13.19 37.266,8.14 20.962,55.22 -11.646,81.39 16.887,8.13 -12.811,26.16 -33.772,-2.9 -6.628,-22.06 -102.726,-99.21 -56.013,56.74 -4.076,36.62 -48.911,38.37 1.164,-36.62 -40.177,4.07 50.076,-59.88 25.038,4.65 58.869,-57.5 -100.726,-97.27 -0.649,0.73 -26.785,4.65 -10.481,-23.84 15.722,-31.39 32.025,13.37 93.747,-9.3 35.519,30.23 12.81,28.48 14.495,11.28 -14.433,14.72 -26.265,-22.51 -18.05,-31.97 h -93.747 l -11.088,12.4 101.428,96.98 98.9,-96.59 5.823,-32.56 z"
       fill="#ffffff"
       fill-rule="evenodd"
       id="path33"
       clip-path="url(#clipPath7)"
       transform="matrix(0.66599649,0,0,0.66599649,1633.2715,282.15733)"
       inkscape:export-filename="bow.png"
       inkscape:export-xdpi="96"
       inkscape:export-ydpi="96" />
    <path
       d="m -1490.32,-612.24 18.65,27.92 18.13,8.12 -3.13,24.34 30.02,53.04 18.75,5.62 1.25,23.09 -28.13,5.61 -10.63,-8.73 1.87,-14.98 -31.88,-51.17 -17.51,-16.23 1.876,-15.6 -15.275,-23.96 z m 139.32,-126.84 -3.75,41.81 -24.39,43.06 -27.51,10.61 1.25,-17.48 -8.75,-23.09 -17.18,-10.99 4.68,-17.82 17.47,-17.03 12.54,7.15 26.26,-6.24 z m -313.872,-0.63 35.014,18.1 10.94,-3.56 4.836,-6.54 -0.167,-0.61 2.523,3.12 15.631,4.99 11.377,26.64 -26.383,25.26 1.876,29.96 -34.389,-16.85 -29.386,-43.69 z m 127.55,-25.58 13.755,14.35 -11.94,25.32 -8.693,-9.2 -6.825,-23.41 z m 55.022,-3.12 22.31,11.91 -8.56,18.56 -13.47,13.97 -12.161,-20.73 z m -124.424,-24.342 31.262,8.737 -5.002,19.345 6.878,6.24 12.504,-4.99 4.377,8.11 0.03,-0.01 8.724,26.12 11.749,12.79 2.006,2.29 -8.128,8.11 29.857,54.73 -13.833,21.37 -29.154,-52.38 -16.903,-6.03 -16.235,-39.01 -17.18,-14.89 4.05,-1.23 6.252,-4.37 v -9.98 l -21.258,-4.37 z m 198.824,-1.248 6.26,30.58 -20.01,13.73 8.13,7.49 -0.43,6.4 -23.33,20.33 -0.53,16.17 -0.72,-0.47 -5.01,11.24 -8.12,-8.12 -39.744,73.5 -12.78,14.39 -4.212,10.35 -0.165,-0.26 -15.631,28.71 4.376,24.34 -20.007,1.24 -34.389,58.67 7.503,11.85 -17.507,11.86 -21.258,-9.98 1.876,-18.1 11.88,-8.12 25.635,-52.42 -2.501,-27.46 25.634,-3.74 18.644,-32.96 11.993,-15.2 4.183,-13.35 0.194,0.35 32.516,-53.67 -8.13,-17.47 1.43,-1.63 18.58,-16.57 8.43,-22.2 5.95,-8.9 9.38,5.62 3.75,-9.37 -1.25,-19.965 z"
       fill="#ffffff"
       fill-rule="evenodd"
       id="path34"
       clip-path="url(#clipPath6)"
       transform="matrix(0.66298332,0,0,0.66298332,876.95604,287.32923)"
       inkscape:export-filename="doubleaxe.png"
       inkscape:export-xdpi="96"
       inkscape:export-ydpi="96" />
    <path
       d="m -1940.794,-948.659 -9.734,9.868 -18.112,-2.788 -8.36,27.183 16.022,24.396 30.652,-4.182 9.753,-25.093 24.582,-22.546 z m 12.258,-12.426 -4.788,4.854 43.654,8.613 7.043,-6.46 z m 296.367,-108.746 -16.022,29.275 -35.528,28.578 -21.596,-0.697 8.36,-32.76 0.697,27.184 22.292,-11.85 -17.416,-26.486 20.899,17.425 24.382,-24.395 -9.753,-0.697 -12.539,-5.577 z m -166.052,-24.504 -18.554,19.625 -20.202,6.274 -4.877,21.607 -28.562,27.881 -20.899,4.879 -6.269,21.607 -23.512,23.835 44.713,8.822 5.967,-5.473 20.899,-9.061 6.27,-17.426 24.382,-28.577 20.202,-4.182 12.539,-25.093 11.673,-10.845 z m 96.39,-9.649 -27.866,26.486 2.02,5.105 38.495,-26.815 z m 94.741,-9.062 -57.82,23.002 -18.797,-7.097 -41.25,31.624 8.496,21.476 -14.629,60.641 50.157,-4.88 55.034,-41.124 20.899,-51.579 z m -158.357,-62.725 -26.8,38.516 5.101,2.021 26.472,-27.881 z m 88.694,-12.552 -34.135,2.091 -7.663,27.183 -13.932,-13.94 -35.528,27.881 -29.955,36.245 5.573,8.364 -1.137,1.202 27.868,31.926 8.1,3.117 35.528,-30.669 27.865,-32.76 -13.932,-18.819 9.753,-2.788 22.292,-11.85 z m -118.056,-44.493 v 36.245 l -5.573,-12.547 -0.696,-9.758 -24.382,24.396 17.415,20.91 -26.471,-17.425 -11.843,22.304 27.168,0.697 -32.741,8.364 -0.697,-21.607 28.562,-35.548 z m 11.146,-27.184 -51.55,20.91 -41.101,55.065 -4.877,50.185 60.607,-14.637 21.464,8.501 31.607,-41.273 -7.093,-18.808 22.988,-57.852 z"
       fill="#ffffff"
       fill-rule="evenodd"
       id="path35"
       clip-path="url(#clipPath5)"
       transform="matrix(0.6088499,0,0,0.6088499,452.76286,531.51033)"
       inkscape:export-filename="dualaxe.png"
       inkscape:export-xdpi="96"
       inkscape:export-ydpi="96" />
    <path
       d="m -1404.95,-1200.215 1.68,10.632 8.24,3.045 -50.76,54.692 -16.84,37.69 -28.885,8.821 -68.992,59.341 -46.53,60.143 -41.717,36.085 -14.44,12.029 -6.418,25.661 -26.474,4.009 -9.627,12.029 -1.604,12.028 -24.87,4.01 -4.813,-28.869 18.451,1.604 10.43,-9.623 11.231,-26.462 21.66,-4.812 68.993,-76.181 77.817,-74.577 21.66,-16.84 12.836,-31.274 35.302,-15.237 z m 97.95,-80.785 -41.72,76.983 -35.29,5.613 -0.4,0.422 -13.24,1.182 0.4,-16.038 6.01,-28.067 z"
       fill="#ffffff"
       fill-rule="evenodd"
       id="path36"
       clip-path="url(#clipPath4)"
       transform="matrix(0.53155143,0,0,0.53155143,421.04377,444.4221)"
       inkscape:export-filename="spear.png"
       inkscape:export-xdpi="96"
       inkscape:export-ydpi="96" />
    <path
       d="m -1931.5703,-340 -5.4116,7.20946 4.1275,12.37214 -109.3776,96.2284 -6.879,-2.75 -41.962,38.491 -8.255,-10.31 7.567,-11.684 8.255,0.687 24.076,-22.682 -24.076,-29.5562 -26.829,24.7442 -1.376,9.623 -30.268,26.119 -6.191,-2.749 -11.006,11.684 15.134,21.308 16.509,-8.935 v -8.936 l 11.007,-4.811 11.006,17.871 -23.388,22.682 -7.567,-5.499 -13.071,9.623 4.128,8.248 -20.637,33.68 -41.963,6.186 -74.982,65.298 25.453,41.24 37.835,31.618 24.076,-40.553 30.268,-41.928 27.517,-4.812 19.261,-13.746 6.879,-41.241 11.007,12.372 11.694,-28.181 58.473,-52.238 -4.816,-35.054 124.353,-107.64 z"
       fill="#ffffff"
       fill-rule="evenodd"
       id="path37"
       clip-path="url(#clipPath3)"
       transform="matrix(0.55637061,0,0,0.55637061,259.18456,726.4954)"
       inkscape:export-filename="rifle.png"
       inkscape:export-xdpi="96"
       inkscape:export-ydpi="96" />
    <path
       d="m -1848.628,-146.97 21.099,11.03 46.106,-0.68 8.258,54.27 -62.622,2.06 -39.562,-17.28 z m 98.172,-165.53 5.505,5.5 6.193,-3.44 8.258,6.87 -100.47,101.68 v 10.99 l -26.838,26.11 1.377,13.74 1.545,0.81 -25.931,51.77 -18.28,19.56 12.387,57.02 -37.848,14.43 -17.204,-48.09 -9.634,-6.87 -46.794,109.92 -63.31,-38.47 39.225,-63.9 26.149,-2.74 19.957,-30.23 -4.129,-20.61 115.609,-118.86 15.827,3.44 37.16,-37.79 15.828,4.12 43.353,-41.91 -6.193,-10.99 z"
       stroke="#172c51"
       stroke-width="1.33333"
       stroke-miterlimit="8"
       fill="#ffffff"
       fill-rule="evenodd"
       id="path38"
       clip-path="url(#clipPath2)"
       transform="matrix(0.64289516,0,0,0.64289516,575.29549,727.19557)"
       inkscape:export-filename="ak47.png"
       inkscape:export-xdpi="96"
       inkscape:export-ydpi="96" />
    <path
       d="m -1765,-18.83 h 2.749 l 59.789,59.83 46.045,-83.22 28.177,59.15 46.731,-26.82 -17.868,-39.89 13.058,-33.7 -7.56,-27.51 29.551,28.2 41.922,-35.08 -31.613,-33.01 36.423,-39.2 -10.995,-22.7 86.591,-93.53 -13.06,-11.69 -18.55,15.82 -6.19,-11.01 -15.804,11.7 10.304,7.56 -85.9,93.53 -14.432,-3.44 -57.728,64.65 -8.246,-11.69 16.493,-17.19 6.185,4.12 12.371,-15.81 -19.93,-25.45 -17.868,17.19 5.498,6.88 -54.979,57.08 -13.058,-0.69 -17.868,16.51 18.556,22.7 19.929,-21.32 -3.436,-8.94 13.745,12.37 -0.687,11.7 -25.428,25.44 z"
       fill="#ffffff"
       fill-rule="evenodd"
       id="path39"
       clip-path="url(#clipPath1)"
       transform="matrix(0.62541664,0,0,0.62541664,613.85079,723.12989)"
       inkscape:export-filename="ar15.png"
       inkscape:export-xdpi="96"
       inkscape:export-ydpi="96" />
    <g
       id="g47"
       inkscape:export-filename="eye.png"
       inkscape:export-xdpi="96"
       inkscape:export-ydpi="96">
      <path
         d="m 126.31774,850.84287 -29.051853,13.02805 -8.420615,31.94066 20.209498,31.51993 33.68372,4.62232 25.26298,-22.27362 3.78888,-27.31747 -18.94667,-24.37529 z m -30.314687,-23.53488 68.208777,0.42023 47.57779,27.73773 24.42076,36.14227 -28.20964,39.08529 -55.99928,26.0563 L 89.265881,950.86633 46.740813,923.96866 21.0571,889.92721 48.003899,849.16178 Z"
         fill="#ffffff"
         fill-rule="evenodd"
         id="path1-4"
         style="stroke-width:0.874606" />
      <path
         d="m 101.47863,894.80826 h 31.67236 l -21.85847,-21.09508 24.98067,-8.97622 23.64321,19.29929 -1.33852,23.78879 -27.2115,12.56689 -21.85847,-5.83451 z"
         fill="#ffffff"
         fill-rule="evenodd"
         id="path2-4"
         style="stroke-width:0.927582" />
    </g>
    <path
       d="m 632.70312,850.6119 -4.23529,7.74719 2.82328,3.52145 7.4124,-1.40859 1.05904,-5.28217 z m -99.53324,-61.62452 33.17771,29.57985 38.82512,11.97239 -9.17651,39.44025 19.54964,21.13043 -3.31382,-13.73538 2.82327,-10.91649 -7.76537,-15.14225 18.35389,-6.69075 18.00093,1.05643 0.70606,5.98647 18.706,-4.93003 9.53048,19.01584 -13.41267,-4.22575 -13.4118,3.8736 1.41114,3.52145 -8.47044,1.05643 23.72168,21.72138 16.51545,-24.89068 -7.76537,-35.9188 38.825,-12.32456 31.41272,-28.87554 5.29432,31.69305 -45.53058,16.9021 47.64866,-9.50792 -1.76511,21.12871 -45.53133,4.22573 44.12019,4.57789 -7.76537,17.9594 -37.06002,-5.63432 34.94194,12.67722 -10.94162,14.7901 -30.35368,-11.62079 26.11852,18.31068 -13.05969,11.62078 -24.00032,-19.36711 16.58879,25.00143 -13.05958,7.04291 -16.58891,-21.833 8.82354,26.41088 -9.52961,3.52145 -2.82315,7.04291 16.23582,13.73365 13.05883,-1.40858 7.76537,17.60639 -14.82381,-7.74632 12.00054,16.54995 -17.64783,-7.74719 7.4114,13.38151 -17.64708,-8.45148 0.35223,-13.73278 -11.64682,-9.50792 -4.23603,7.39505 18.70687,38.38295 -8.11835,3.5214 -8.11747,-9.15573 4.58826,9.15573 -7.76451,2.113 -8.47144,-16.55086 2.47118,16.19856 -15.53075,0.7044 -1.41114,-13.02936 -1.7651,14.43786 -13.0597,-2.1129 0.70607,-11.26853 -4.58826,10.91643 -10.94162,-6.3386 19.05909,-37.67864 -3.88218,-7.39506 -13.7649,9.86006 0.70607,14.08494 -16.23669,6.69075 8.11835,-14.79009 -20.11814,9.86007 12.35276,-16.19781 -16.58891,9.8592 6.35336,-16.54996 16.94189,-0.70429 14.82468,-14.43795 -1.76511,-5.63432 -15.88285,-4.93004 8.82354,-24.65014 -15.17678,23.24157 -14.82393,-9.86006 17.29411,-23.24158 -22.9414,17.95941 -13.05957,-12.32508 26.11839,-19.01497 -30.70665,13.38064 -8.82441,-16.54993 33.1777,-12.32508 -38.825,5.28215 -4.94135,-17.2551 40.9432,-5.28218 -43.41338,-2.46501 -1.76498,-20.77657 47.64854,7.04291 -45.17749,-16.19782 z"
       fill="#ffffff"
       fill-rule="evenodd"
       id="path3-0"
       style="stroke-width:0.865221"
       inkscape:export-filename="pheonix.png"
       inkscape:export-xdpi="96"
       inkscape:export-ydpi="96" />
    <g
       id="g48"
       transform="matrix(1.6590685,0,0,1.6590685,-163.95638,-597.21809)"
       inkscape:export-filename="powerup.png"
       inkscape:export-xdpi="96"
       inkscape:export-ydpi="96">
      <g
         id="g46">
        <path
           d="M 291.05235,964.29327 V 936.4961 l 39.2635,-27.79718 39.2635,27.79718 v 27.79717 l -39.2635,-27.79717 z"
           fill="#ffffff"
           fill-rule="evenodd"
           id="path4-9"
           style="stroke-width:0.694929" />
        <path
           d="M 291.05235,928.85187 V 901.0547 l 39.2635,-27.79717 39.2635,27.79717 v 27.79717 l -39.2635,-27.79717 z"
           fill="#ffffff"
           fill-rule="evenodd"
           id="path5-0"
           style="stroke-width:0.694929" />
        <path
           d="m 291.05235,892.71555 v -27.4497 l 39.2635,-27.44971 39.2635,27.44971 v 27.4497 l -39.2635,-27.4497 z"
           fill="#ffffff"
           fill-rule="evenodd"
           id="path6-4"
           style="stroke-width:0.694929" />
      </g>
    </g>
    <path
       d="m 580.1574,-86.908923 16.83714,0.93359 3.27405,20.53312 11.69136,1.86601 1.4033,-19.13332 h 13.56327 l 0.93588,19.6007 14.0307,-0.46738 1.87074,-21.4667 h 15.90127 l 1.87058,23.33388 15.43518,-1.86718 2.80544,-20.53312 12.6284,0.46738 0.93487,18.19973 14.96305,0.93242 1.87644,-20.99933 14.49915,1.86718 0.93252,20.99933 -10.75784,21.466714 -0.46626,30.33288 h -16.36988 l -0.46727,-14.000331 -5.61322,-5.132992 -4.67617,3.733192 v 14.466556 l -7.95123,-0.466225 v -12.133149 l -7.48261,-7.000174 -3.74265,5.132992 1.87073,14.000331 -14.49797,0.466225 3.27388,-12.599374 -6.54792,-7.000174 -4.67718,4.666783 1.4033,16.332565 -11.6927,-1.3998 0.93604,-15.400131 -6.54792,-4.199417 -5.61204,4.666783 1.40213,15.86634 -10.2894,-2.333375 -0.46726,-13.066756 -6.07948,-4.1994 -6.08049,5.132991 2.80661,14.46654 0.9347,2.7996003 -17.30458,0.933591 0.46726,-33.1324793 -12.62723,-23.800106 z m 65.94444,-161.465357 9.35453,0.93336 v 6.99992 l 40.22121,18.66641 -36.4799,11.66696 1.40331,12.59936 47.70164,105.932577 -2.79738,19.59953 -6.08401,-0.93359 -1.87175,-13.53295 -23.38523,-5.13299 -0.46743,19.59953 h -7.01636 l -2.80544,-17.73236 -23.38523,-0.93359 -1.87074,16.79994 -6.08049,0.93242 -1.87074,-13.53295 -19.64258,-0.93359 -1.40331,14.93392 -6.07948,0.93358 -6.08048,-17.73352 47.705,-106.866157 z"
       fill="#ffffff"
       fill-rule="evenodd"
       id="path7-7"
       style="stroke-width:1.16553"
       inkscape:export-filename="palace.png"
       inkscape:export-xdpi="96"
       inkscape:export-ydpi="96" />
    <path
       d="m -628.89344,1460.9053 66.45401,20.837 -3.79772,22.2577 -19.93578,-2.8409 18.03697,10.418 -7.5947,7.5771 -69.77602,-26.0458 18.03771,-17.996 z m -23.75625,-26.0458 8.05881,9.5169 -19.34136,14.0489 24.17634,-8.6108 5.64164,18.5816 -33.04108,30.3641 -39.89137,20.394 -17.72949,-38.5217 z m 5.71928,-35.5176 5.69578,12.7862 6.6453,-8.5243 -1.42374,19.8896 20.88519,24.1522 -4.74639,6.6299 -13.29122,-6.1563 -19.46071,-20.3633 -19.46145,8.9972 -17.0883,-11.8389 21.83469,5.2091 19.93578,-17.0481 z m 59.85937,-52.6841 5.7375,11.7642 -3.906,8.7945 -5.04881,-7.4073 z m -103.52939,-40.6095 10.91809,26.0467 -9.49361,18.4689 -9.96784,-16.5744 z m 52.68845,-10.8916 35.12518,38.8328 -5.22072,44.5147 6.6453,35.5183 31.32809,8.5236 -8.5441,-40.2529 28.47988,28.414 -7.12026,41.2002 -15.1894,15.6279 -40.34663,-11.3654 18.51194,-19.4168 -27.53048,-2.8409 -8.5441,-24.1522 10.91735,-37.8857 -19.46145,19.4168 -9.96784,-17.9959 -5.22156,32.6765 -17.56253,16.5744 -27.53048,-19.8896 -0.94941,26.0467 19.93578,13.7334 -30.37879,14.6806 -0.9494,-4.2626 -20.88529,-35.5175 28.00565,-59.6697 22.78399,31.2556 18.98638,-29.8348 -9.49277,-40.7266 39.87156,26.046 z"
       fill="#ffffff"
       fill-rule="evenodd"
       id="path8-4"
       style="stroke-width:0.732018"
       inkscape:export-filename="fire.png"
       inkscape:export-xdpi="96"
       inkscape:export-ydpi="96" />
    <path
       d="m -941.48076,1476.6826 -1.10623,23.1376 -14.92916,21.4848 -19.90561,-3.3054 14.37604,-36.9098 z m 35.38715,-41.317 108.92838,3.3054 -69.66953,66.6581 -65.2463,-12.1197 51.42253,-26.9937 -51.42253,18.1795 -1.10623,-11.0179 z m 16.03539,-42.4186 -5.52947,17.6285 -22.11733,23.6884 10.50591,-29.1973 z m 99.52794,-33.0536 L -832,1422.6951 h -48.65854 l 33.17627,-29.7481 -38.70574,23.1374 12.71754,-46.8259 z m -196.84428,-29.1974 69.66953,76.0233 -15.48227,58.3946 -25.98745,-49.5804 17.14089,52.8857 -11.61131,-1.6526 -35.94101,-24.2393 z m 145.97413,-3.8562 -21.56412,35.2571 -8.84668,-4.4071 z m -54.18727,-25.8919 17.69389,63.3526 -23.77583,25.892 v -32.5027 l -8.2942,33.0536 -15.48227,-29.1974 z"
       fill="#ffffff"
       fill-rule="evenodd"
       id="path9-3"
       style="stroke-width:0.734523"
       inkscape:export-filename="herbs.png"
       inkscape:export-xdpi="96"
       inkscape:export-ydpi="96" />
    <path
       d="m -346.46846,1417.784 17.0321,18.862 6.66457,28.8476 5.92413,-13.314 -5.92413,-17.3827 7.03432,-15.1638 -10.36661,6.2876 z m -69.23673,-7.0271 17.77253,9.6158 5.92414,19.6016 -4.31586,9.5457 -7.02159,11.4228 -1.27121,4.3268 -5.90419,14.2784 -10.36672,38.0937 -31.84198,-10.3555 -21.47456,-20.3412 -2.96161,-17.3827 20.73333,-16.6431 4.57001,-5.2849 7.91261,-7.6154 13.23119,-18.1007 z m 96.26568,-40.6825 -10.36753,12.2045 2.96253,12.5744 10.36661,3.699 13.69901,-5.548 1.84901,-8.8762 -5.55117,-12.9443 z m -154.39445,-9.2461 -5.92414,2.5887 -0.37067,6.6574 17.40185,8.8763 z m 29.61988,-13.6845 -8.14543,7.7668 18.88272,7.397 33.69259,8.5065 31.10086,21.0808 15.55112,14.794 -2.59185,-5.9178 9.25561,-5.1782 -2.22118,-12.2045 -9.25642,-3.6981 -7.03444,7.7668 -16.29074,-11.4657 9.62618,-22.1903 -18.14229,17.3827 -12.21803,-9.246 -31.47141,-4.4385 z m 48.13204,-11.0951 -8.14543,6.2868 1.85142,8.877 11.84839,4.0679 9.62618,-8.1366 -2.59186,-10.7254 z m 44.80055,-6.6575 -12.58801,14.0545 5.18301,13.6837 12.58871,1.8491 11.47771,-6.6566 1.48075,-9.6159 -5.92333,-9.6166 z m -49.6137,-27.7382 2.2221,12.2045 15.17975,2.9594 9.25642,-5.9178 0.74043,-9.2461 15.18056,0.3698 34.8037,24.7798 2.59186,16.6431 13.69889,2.2188 5.92494,-3.329 11.47691,36.2454 -8.51197,52.1473 -4.81395,-2.2189 -6.66778,9.6159 6.2932,8.8763 -12.5871,26.6287 -11.47771,6.6575 -5.18371,6.6573 -35.54413,-4.8083 -28.74481,-16.0191 4.67839,-16.8973 8.14543,13.3148 -2.22129,-18.4921 35.91389,18.1223 -32.58161,-23.3005 -9.25642,-14.4234 14.81,-18.4922 -19.25327,11.465 -15.92019,-11.8347 -11.84827,-28.4786 5.1837,30.3276 -10.73728,8.1367 -26.2884,-17.0129 20.73402,20.7109 -4.53491,5.4684 -7.8266,6.6358 -40.2138,-37.2537 1.11111,-29.2175 31.4713,-33.2861 7.03444,4.4386 7.405,-5.1782 1.48074,-7.397 -2.59185,-3.3284 30.73099,-18.1223 z"
       fill="#ffffff"
       fill-rule="evenodd"
       id="path10-2"
       style="stroke-width:0.797006"
       inkscape:export-filename="mushroom.png"
       inkscape:export-xdpi="96"
       inkscape:export-ydpi="96" />
    <path
       d="m -819.86516,1133.4959 -14.49495,2.2273 -3.90307,69.6139 20.07083,-1.6744 5.575,-55.6896 z m -89.06569,-34.886 70.2467,1.6705 2.78717,17.8243 17.28289,1.1135 13.3806,15.5909 0.55756,64.0456 -11.15022,17.8183 -25.64583,1.6745 -11.70778,31.7423 1.11513,11.6972 -107.04209,-1.6745 1.11513,-11.1363 -8.92062,-66.273 h 17.2829 l 13.38059,-33.4168 -20.07084,-22.2727 8.36305,-17.8229 19.5125,8.3531 z m 10.59265,-49.5662 10.59265,23.3911 14.49573,-12.2523 11.70778,11.6947 28.433,5.0129 -5.57511,20.6054 -71.9194,-5.569 -18.95493,22.2765 -20.07083,-13.9226 -12.82292,27.847 19.51327,21.7197 -9.47752,23.3863 -9.47819,-1.1135 -15.61008,-3.3409 -12.26535,-28.9545 8.36294,-27.8487 -6.13268,-39.541 26.76042,-0.5576 4.45986,-18.935 22.85801,8.3538 2.78794,-11.6955 z"
       fill="#ffffff"
       fill-rule="evenodd"
       id="path11-7"
       style="stroke-width:0.768026"
       inkscape:export-filename="beer.png"
       inkscape:export-xdpi="96"
       inkscape:export-ydpi="96" />
    <path
       d="m -693.4308,1195.2055 6.04646,31.9319 14.51221,31.329 -32.65235,-7.8304 -21.76754,-27.1161 z m 34.46637,-16.874 2.41841,41.571 15.11659,42.1738 -21.16305,4.8234 -17.53576,-34.9465 -4.23243,-40.9681 z m 45.95415,-10.242 h 40.51283 l -3.02356,31.9318 -16.93061,27.719 -44.14012,21.6899 -13.30332,-31.9319 -3.02291,-44.5855 z m 19.95417,-29.5202 22.97707,3.0145 4.2333,19.2782 -71.95564,1.8087 -57.44344,24.094 -45.95491,38.564 -6.04646,-30.1232 50.18734,-32.5348 56.23381,-21.6897 z m -87.67662,-37.958 -9.07002,11.4471 2.41841,38.5616 -52.60586,31.3289 18.74464,-54.2245 z m 39.3033,-10.2428 29.02429,1.2051 11.48854,18.6775 24.18671,10.2458 1.81403,15.6607 -16.93061,-7.2275 -55.02504,6.6246 z m -26.60512,-8.4348 h 23.58146 l -12.69731,57.8414 -22.37269,7.8304 -0.60515,-30.1231 z m 96.14149,-31.3297 26.60588,6.6276 6.04657,20.4847 -18.14025,10.242 6.04646,14.4602 -6.04646,16.2697 -38.09366,-12.6545 -15.72174,-29.5225 7.86049,-11.447 23.58222,2.4093 z"
       fill="#ffffff"
       fill-rule="evenodd"
       id="path12-4"
       style="stroke-width:0.753643"
       inkscape:export-filename="potion.png"
       inkscape:export-xdpi="96"
       inkscape:export-ydpi="96" />
    <path
       d="m -140.55973,1437.0175 -18.9299,30.556 26.6366,-24.9827 2.0362,29.3399 -22.6408,31.3483 -40.7993,9.4927 -0.417,-47.2274 25.636,-26.5741 z m 30.3267,-3.3565 28.804803,5.7679 24.2252,30.1321 -1.6053,41.9112 -45.615103,-12.057 -18.8395,-31.7652 5.6219,-28.0126 24.454603,26.3308 z m -16.3726,-21.0494 12.4532,5.344 -2.3697,11.8832 -10.6811,5.9417 -8.8951,-14.8506 z m 69.479103,-38.7069 38.2211,17.1654 -28.2211,37.8445 -36.4768,5.622 -23.843103,-15.6985 33.537303,-12.8631 -36.310003,3.7526 16.122303,-24.5915 z m -129.166503,-1.2947 34.5102,13.0848 13.0368,25.4157 -35.5178,-5.3371 33.4539,14.6352 -26.1224,13.4539 -37.7069,-8.4434 -24.8298,-33.775 z m 59.6874,-62.7577 30.257303,36.233 -2.9674,36.8271 -20.764503,19.6018 -4.7463,-35.6394 -4.7464,36.2301 -20.1738,-21.3802 -2.3767,-38.6089 z"
       fill="#ffffff"
       fill-rule="evenodd"
       id="path13-2"
       style="stroke-width:0.694929"
       inkscape:export-filename="flower.png"
       inkscape:export-xdpi="96"
       inkscape:export-ydpi="96" />
    <path
       d="m -440.7555,1143.7944 20.9994,23.2315 1.7025,24.9271 18.7298,8.499 v 14.7325 l 9.0806,2.2655 9.6484,32.3003 -107.2679,2.2655 10.7832,-40.7924 -7.9451,-16.4351 26.1071,-10.7644 -4.54,-36.2615 z m 52.7826,-10.7644 8.5136,4.5309 -7.378,13.0299 z m 17.0272,-19.8333 9.6484,25.4969 42.5686,18.7006 37.4567,48.1586 -26.6784,-15.2954 -40.292,-9.0688 -48.8111,18.1307 -14.1891,-16.4282 3.9729,-19.2634 -27.2426,-23.2315 37.4588,-14.7325 0.5678,35.6985 18.1612,-3.4051 7.9459,-21.5289 L -384,1120 Z m -14.1891,-60.6257 0.5678,40.7959 40.8625,-5.1001 -73.2136,38.5296 -74.9175,20.966 26.6749,-23.2314 -22.702,-35.1308 44.2691,-23.7972 z"
       fill="#ffffff"
       fill-rule="evenodd"
       id="path14-3"
       style="stroke-width:0.694929"
       inkscape:export-filename="crowmask.png"
       inkscape:export-xdpi="96"
       inkscape:export-ydpi="96" />
    <g
       id="g45"
       transform="matrix(0.71929371,0,0,0.71929371,1489.7636,860.09974)"
       inkscape:export-filename="money.png"
       inkscape:export-xdpi="96"
       inkscape:export-ydpi="96">
      <path
         d="m -2956.0133,49.049539 -21.0877,-10.868694 -1.2779,-13.426034 -14.0585,0.639335 v 12.786699 l -19.1703,15.983374 4.4733,19.819383 35.146,12.786699 -3.8346,10.22936 -30.6728,-12.786699 -5.1119,8.950689 24.2829,13.426029 1.278,14.06537 6.3899,-0.63933 1.278,-12.7867 16.6143,-5.75401 3.834,-24.294733 -33.8674,-12.786699 -5.1126,-8.95069 14.6977,-4.475344 17.8924,9.590024 z"
         fill="#ffffff"
         fill-rule="evenodd"
         id="path15-7"
         style="stroke-width:0.694929" />
      <path
         d="m -3069.5926,9.3273801 -7.672,17.9222269 -14.0654,3.842959 -3.836,77.463764 18.5407,5.76097 5.1147,17.28984 174.5385,2.55734 5.754,-17.28289 16.6227,-7.68592 3.836,-74.906429 -21.0981,-5.760964 -4.4753,-19.2008969 z m 212.2592,-17.9291759 -1.2786,162.6134558 -253.1767,-1.27867 -1.2787,-157.4918268 z"
         fill="#ffffff"
         fill-rule="evenodd"
         id="path16-2"
         style="stroke-width:0.694929" />
      <path
         d="m -3052.8705,49.772265 -18.5011,20.993815 21.6908,24.17659 17.2252,-22.265535 z"
         fill="#ffffff"
         fill-rule="evenodd"
         id="path17-2"
         style="stroke-width:0.694929" />
      <path
         d="m -2920.5719,56.026629 -13.8986,20.500414 20.2162,20.500415 14.5302,-21.13975 z"
         fill="#ffffff"
         fill-rule="evenodd"
         id="path18-0"
         style="stroke-width:0.694929" />
      <path
         d="m -3092.9144,-27.698453 1.2814,9.590024 241.5408,1.918005 3.8436,152.828854 16.0175,-2.55734 -7.0473,-165.615553"
         fill="#ffffff"
         fill-rule="evenodd"
         id="path19-1"
         style="stroke-width:0.694929" />
      <path
         d="m -3070.6767,-51.200962 v 11.556674 h 241.4887 l 6.3884,154.739908 13.4163,-1.28562 -5.7498,-167.5822"
         fill="#ffffff"
         fill-rule="evenodd"
         id="path20-8"
         style="stroke-width:0.694929" />
    </g>
    <path
       d="m -329.77608,888.81215 -8.80594,11.33747 8.38692,8.81803 9.22506,-8.81803 z m 19.2889,-20.99741 -7.96727,14.69882 11.32173,5.8808 7.54815,-10.07775 z m -42.85128,-1.54458 -5.93272,12.73012 8.47555,12.73644 11.86609,-12.73644 z m -66.72273,-16.54726 -16.1035,0.84825 -1.69522,17.82597 -22.03623,5.08951 3.3899,18.67423 17.79872,-2.54477 5.93336,23.76374 15.25589,-0.84825 2.54284,-22.06723 16.1035,-0.84826 1.69522,-16.97771 -20.34156,-0.84825 z m 88.60766,-2.90558 -9.64418,11.76159 12.57952,11.33747 10.06374,-12.59719 z m -116.1125,-32.42984 32.58804,1.86742 18.31148,11.18555 14.58682,4.34887 27.00165,-15.85093 39.72609,0.62669 24.20813,27.34666 13.03526,54.39578 -2.79361,49.1037 -20.48338,20.51632 -27.31182,-1.86742 -17.07017,-20.51632 -24.51829,-7.14685 -36.62296,0.31019 -27.31181,26.42243 -29.79462,4.34888 -18.62165,-19.88963 -3.10368,-47.86297 15.2077,-64.03041 z"
       fill="#ffffff"
       fill-rule="evenodd"
       id="path21-2"
       style="stroke-width:0.633024"
       inkscape:export-filename="game.png"
       inkscape:export-xdpi="96"
       inkscape:export-ydpi="96" />
    <path
       d="m -125.3136,953.81117 -10.4517,9.56918 10.4517,8.20017 6.8103,-9.56918 z m 42.2448,-15.48998 -6.8173,9.11053 8.1793,6.37945 7.269,-8.20017 z m -86.7619,-0.4517 -7.7207,7.74151 9.5344,10.47954 6.3586,-9.56918 z M -64,896 l -11.7095,7.96389 8.5268,7.68592 9.7151,-6.8659 z m -123.5445,-1.41765 -7.7248,10.02782 7.7248,6.83116 7.262,-8.20017 z m 60.4102,-33.71798 -5.8999,41.91814 -18.9925,30.56994 -2.3627,1.77902 1.8207,-0.91036 0.542,-0.86866 30.7993,-23.28013 z m 44.5172,-9.56222 -7.7207,7.74151 9.5414,10.47953 6.3586,-9.56917 z m -86.3033,0 -10.4517,9.56222 10.4517,8.20712 6.8103,-9.56918 z m 42.6965,-18.228 -9.5414,7.74846 10.4517,8.20017 6.8103,-8.65882 z m 58.1447,-21.86942 17.262,1.82071 17.7138,20.04871 -13.3565,15.92778 -31.8417,-28.90906 z m -38.6103,-22.77979 0.9034,16.40034 h -13.1689 l 0.9104,8.20016 31.6888,8.74221 16.4559,9.48579 20.9174,24.40591 14.517,39.83335 -9.5413,49.6666 -35.8862,38.26976 -58.1447,11.38989 -55.8723,-25.96951 -25.4345,-58.31847 14.9904,-56.94945 28.1648,-28.70753 42.6964,-12.7589 -0.4517,-6.37946 -13.6276,-1.82071 0.4517,-14.12096 z"
       fill="#ffffff"
       fill-rule="evenodd"
       id="path22-1"
       style="stroke-width:0.694929"
       inkscape:export-filename="clock.png"
       inkscape:export-xdpi="96"
       inkscape:export-ydpi="96" />
    <path
       d="m 457.67519,458.7494 -3.71026,16.25016 -21.82478,6.96524 -49.22434,6.03613 -45.96936,-3.24881 -23.68301,-7.89434 -4.64553,-16.25016 21.3633,4.17791 8.35588,15.78868 v -13.46284 l 39.93319,3.71028 4.64553,13.00137 3.24878,-11.60463 41.32994,-3.71643 2.31971,10.67551 3.71646,-12.9952 z m 8.82346,-24.13837 -2.31971,16.71165 -38.07496,8.82346 -51.08248,3.71027 -39.93319,-4.17791 -31.10981,-6.03612 -3.24878,-17.64075 38.07496,7.42671 53.39608,5.10701 44.57872,-7.4267 z m -166.698,-77.5344 26.93179,8.8173 0.46148,29.71917 3.71645,-30.18065 48.28898,6.96524 5.11321,22.74778 0.46148,-24.14452 50.61489,-2.31969 2.7873,21.35718 1.39063,-23.2154 24.61208,-6.03613 3.24887,36.21678 -1.85823,32.0327 -24.61217,5.57464 -3.71026,-32.03885 -3.25497,33.42945 -46.89843,3.2488 -5.10701,-32.50033 -3.71646,30.18063 -43.64345,-1.85822 -6.50376,-25.06746 -1.39063,23.20925 -24.15069,-3.2488 -6.49756,-37.60736 z m 164.83977,-20.42808 3.71646,17.17927 -33.43563,8.35583 -49.21814,5.10702 -44.11104,-4.64554 -47.36611,-10.21405 1.85823,-15.32105 24.61217,6.03613 47.8275,6.96523 62.68713,-3.71643 z m -27.39327,-31.57122 -16.25638,1.39058 -15.32102,3.2488 14.85954,-0.46147 z m -118.40902,-1.85822 19.96655,6.96524 27.39336,0.9291 -25.07365,-5.10702 z m 44.57872,-0.46148 -19.97275,0.9291 37.152,6.02998 46.43084,-6.95908 -41.79142,0.46148 z m -11.14929,-19.03749 51.08248,0.46148 57.11253,13.00136 v 7.42671 l -6.96523,2.32585 4.64553,27.39331 -22.29246,5.5685 -6.49765,-20.42808 0.92916,22.2863 -45.50788,-0.46763 -3.24878,-20.42808 -3.25498,23.2154 -44.11113,-4.63938 1.39675,-20.42809 -7.43283,20.88956 -23.68309,-6.4976 7.43291,-26.93184 -7.43291,-2.78118 2.3259,-10.21403 z"
       fill="#ffffff"
       fill-rule="evenodd"
       id="path23-4"
       style="stroke-width:0.615303"
       inkscape:export-filename="barrel.png"
       inkscape:export-xdpi="96"
       inkscape:export-ydpi="96" />
    <path
       d="m 1207.2088,91.099922 -47.8467,46.533708 -46.4144,-45.817528 -12.1452,15.749958 47.8467,45.10135 -49.2731,47.9601 12.8554,15.74995 47.1306,-49.39245 50.7054,49.39245 12.8494,-20.75724 -49.9833,-45.10135 45.6982,-40.81024 z m -18.1194,-48.461417 -31.2373,2.333546 -12.581,16.358719 h 43.8182 z m -41.4906,-10.283129 52.2094,1.402513 1.3966,19.629266 h 29.9184 l 6.9767,12.133257 0.8117,154.581178 -9.7042,10.39653 h -138.7716 l -9.1134,-11.9005 -0.8475,-125.020908 7.9258,-7.01258 -2.7991,-7.94362 -11.1904,0.46551 -5.592,-13.082192 31.6968,-17.761224 8.8568,17.289744 -6.5232,3.276515 4.6611,7.472137 15.8514,-6.5411 z"
       fill="#ffffff"
       fill-rule="evenodd"
       id="path24-9"
       style="stroke-width:0.596815"
       inkscape:export-filename="jerrycan.png"
       inkscape:export-xdpi="96"
       inkscape:export-ydpi="96" />
    <path
       d="m 640.8086,99.95648 18.0959,17.3093 0.3266,26.3809 -16.984,8.88954 -21.3622,-9.94097 -0.028,-32.23707 z m -22.0154,-36.28921 -31.2649,32.21692 1.0077,61.41299 43.3705,34.23013 52.4463,-20.13558 L 700.496,110.9857 688.3904,83.80285 660.1485,71.7215 Z m 1.0077,-33.12311 38.7353,1.61085 0.8061,22.55184 16.1363,4.02712 17.7554,-17.71931 29.0481,31.4115 -19.3677,17.71931 8.0681,16.10846 25.8236,4.02711 -1.6122,35.43792 -25.0175,4.02712 -7.262,14.49761 20.9799,18.52473 -29.8541,24.96812 -21.7861,-18.52473 -10.4934,8.05423 -3.2245,25.77354 -37.1231,-7.24881 -2.4184,-18.52473 -13.7179,-6.44339 -20.1738,19.33016 -26.6297,-30.60608 15.3371,-19.33015 -7.262,-15.30304 -24.2113,-0.80542 -0.8061,-37.04877 28.2419,-2.41627 3.2314,-18.52473 -14.531,-14.49762 29.055,-27.38438 16.1363,16.91389 16.1363,-11.27593 z"
       fill="#ffffff"
       fill-rule="evenodd"
       id="path25-3"
       style="stroke-width:0.694929"
       inkscape:export-filename="gear.png"
       inkscape:export-xdpi="96"
       inkscape:export-ydpi="96" />
    <path
       d="m 948.03951,132.14963 10.26669,14.31711 -11.45728,15.93251 -20.44962,3.15299 -8.76495,-12.18719 5.37863,-17.6496 z m 7.58633,-27.42567 -47.57615,7.53248 -21.82565,37.37527 21.3889,38.44022 48.671,5.86923 19.78549,-12.36668 6.28209,-23.2137 1.71706,-32.94192 z m -13.72482,-34.419703 4.97777,21.622258 14.73591,0.46666 9.6624,-12.851298 24.4522,19.510288 -11.36154,14.364965 10.52394,11.27181 15.0111,-2.12393 2.9975,30.19576 -17.42825,3.10513 -1.35219,12.94703 15.70514,11.81626 -21.20937,25.96584 -15.87864,-13.06669 -11.62482,8.02309 -0.29917,20.45559 -27.69493,2.64444 -5.86919,-18.9419 -12.05555,-4.03847 -12.07957,18.29575 -22.66326,-20.39575 11.9958,-18.92396 -7.40691,-7.24531 -20.36584,0.32906 1.55554,-29.56158 14.11973,-3.91282 3.49998,-11.3436 -17.21877,-13.50942 20.84444,-24.003445 16.6923,9.764115 11.08639,-7.311125 -2.03422,-18.852156 z m -128.2497,-7.185479 9.86575,0.39487 3.09318,10.553866 -5.65387,10.123087 -8.40594,-0.32906 -5.94702,-8.453856 z m 9.44096,-18.241902 -18.94788,5.438469 -13.06069,23.62054 8.99836,22.52567 24.35638,3.787175 19.36069,-19.486335 1.35219,-13.000877 -8.09488,-10.775222 z m -7.6342,-14.239335 2.42914,9.973517 8.60939,-0.765812 4.2359,-7.364968 14.3769,9.076081 -4.63676,8.770951 5.25904,5.06155 10.63165,-2.871804 4.1641,18.319683 -11.24188,2.518805 -0.46069,7.897449 8.93844,7.179492 -8.37013,13.150445 -10.39824,-3.936755 -5.93506,3.936755 3.91882,11.64275 -16.818,2.99146 -4.22996,-11.82225 -5.75555,0.77778 -6.86839,9.11199 -12.52821,-10.87694 3.13502,-7.586335 -3.80509,-5.45043 -11.906,2.95555 -3.42223,-17.482066 10.06325,-4.014539 0.5863,-7.41881 -9.02814,-5.594025 7.80767,-14.293181 11.26581,5.252998 5.28892,-6.353854 -2.35131,-8.699157 z"
       fill="#ffffff"
       fill-rule="evenodd"
       id="path26-8"
       style="stroke-width:0.598291"
       inkscape:export-filename="gears.png"
       inkscape:export-xdpi="96"
       inkscape:export-ydpi="96" />
    <path
       d="m -891.73433,832.06193 -44.19124,79.06202 43.7559,5.617 -1.2978,55.73227 48.95521,-80.79032 h -45.48892 z m -32.92978,-33.2667 66.28668,0.43208 v 11.66528 l 26.85977,-0.86416 18.19392,25.92139 2.16849,136.5234 -24.26405,23.76182 -113.93609,0.86415 -20.36242,-29.81009 -3.46629,-139.54713 18.19404,-17.28147 27.73023,1.72751 z"
       fill="#ffffff"
       fill-rule="evenodd"
       id="path27-1"
       style="stroke-width:0.806113"
       inkscape:export-filename="battery.png"
       inkscape:export-xdpi="96"
       inkscape:export-ydpi="96" />
    <path
       d="M 124.54716,367.76209 35.440041,278.899 l -8.097673,40.58625 20.035619,35.45982 32.403723,22.64346 26.43161,4.69938 -76.315144,75.19198 -0.847655,26.48812 22.167647,0.42704 74.176652,-80.31841 67.36334,81.60017 23.02168,-2.56352 3.8338,-21.7881 -76.30876,-74.3379 16.62569,-17.94343 17.4798,0.42703 54.14113,-57.67559 -21.74379,6.83587 -23.44555,20.50696 16.20191,-23.49753 11.08382,-19.65224 -40.0777,34.17805 5.54196,-15.38054 20.88964,-33.32353 -26.4316,21.36125 -32.39725,29.05163 v 17.94343 z"
       fill="#ffffff"
       fill-rule="evenodd"
       id="path28-0"
       style="stroke-width:0.642167"
       inkscape:export-filename="food.png"
       inkscape:export-xdpi="96"
       inkscape:export-ydpi="96" />
    <path
       d="m 563.0582,412.23449 30.9035,25.71238 42.9188,9.85619 49.3609,-12.8562 24.4684,-17.56989 -11.1605,55.28162 -16.31,13.71304 -38.2003,4.28563 h -39.4859 l -30.4796,-16.28428 z m 143.7809,-16.32875 -2.9952,2.18694 -32.62,15.42743 -42.9257,5.14248 -38.6312,-11.57058 -17.4149,-10.29468 25.1426,23.15087 48.9299,5.57125 47.6444,-13.28496 z m -145.1638,-50.58321 27.6373,9.43992 30.5422,1.4524 -31.2718,-7.98752 z m 167.4571,-6.07299 -3.3982,3.13274 -2.3489,23.40522 7.0675,-24.69084 z m -187.9645,-30.29336 32.1892,20.56991 27.9014,3.42878 56.6576,1.7137 56.6575,-9.85619 18.0265,-11.57057 -0.7227,13.46287 1.5844,-2.32107 13.7318,10.28496 -6.0111,6.85686 -8.5824,37.71173 -23.1759,35.56857 -27.0397,15.8562 -45.0731,8.14179 -42.488,-6.42809 -41.6401,-33.4261 -18.0265,-33.85418 -1.7165,-19.71306 -5.1494,-7.71371 1.2856,-3.00001 -1.2856,1.28562 7.7276,-12.42743 12.877,10.71373 -6.442,11.57057 10.7298,33.4261 2.4322,2.23837 -1.5705,-6.95277 -6.8659,-32.14048 5.1494,-7.71371 -11.5914,-8.99934 z m 86.2755,-23.99799 61.3762,2.14247 45.0661,22.28429 -39.4859,16.71305 -66.1016,5.14248 -49.3609,-5.57125 -35.622,-20.56991 34.3364,-16.28427 z"
       fill="#ffffff"
       fill-rule="evenodd"
       id="path29-7"
       style="stroke-width:0.694929"
       inkscape:export-filename="bucket.png"
       inkscape:export-xdpi="96"
       inkscape:export-ydpi="96" />
    <path
       d="m -117.71168,1213.2946 11.20011,15.7189 7.993374,21.172 -1.598704,1.925 -4.15643,0.3207 -4.79611,-17.3231 -9.60141,-14.1144 -15.35669,0.3207 -7.99337,11.2275 -3.1974,14.7566 13.42888,3.849 13.43835,-1.6033 1.27893,-3.5294 -4.7961,-13.4729 h -6.71444 l -1.92781,10.9066 -3.8368,-0.9621 0.31976,-14.1144 7.04355,-2.8869 9.27231,1.6034 6.71444,18.9263 -2.23811,9.6241 h -14.70781 l -20.16213,-0.3206 -6.0749,-3.2078 6.72378,-20.8514 10.55124,-16.0394 z m -59.79976,-23.4741 14.92406,12.2487 -3.16912,19.0543 -9.27231,20.6417 -2.48263,0.2266 -3.16925,-2.7214 8.82101,-15.652 3.16912,-16.7851 -11.08726,-10.6613 -13.57002,2.2681 -12.66701,8.1665 6.78954,12.2487 10.62648,8.393 3.39484,-1.5883 6.10319,-12.9295 -4.74901,-4.7631 -9.04659,6.3514 -2.0312,-3.4023 10.17505,-9.7538 7.0154,2.9481 5.42603,7.7122 -8.59515,18.1468 -8.36957,5.2173 -10.41024,-10.4346 -14.02132,-14.517 -2.03119,-6.578 19.44735,-9.9804 z m 100.424974,-0.8163 19.00539,3.1758 20.58528,9.2996 0.22572,2.4958 -2.71782,3.1757 -15.60122,-8.8472 -16.739,-3.1758 -10.63582,11.1156 2.26625,13.6094 8.14385,12.7028 12.20637,-6.8047 8.36957,-10.6612 -1.57989,-3.4024 -12.89286,-6.1249 -4.74902,4.7632 6.32891,9.0738 -3.3855,2.0416 -9.73308,-10.2079 2.94353,-7.0314 7.69242,-5.444 18.09318,8.6198 5.20045,8.392 -10.40077,10.4346 -14.48222,14.0637 -6.55449,2.0416 -9.9588,-19.5076 -3.83681,-18.8267 z m -67.953084,-3.9975 10.36314,3.0798 -24.94875,51.1979 z m 37.50291,-2.5081 16.504094,54.6625 -28.023844,-49.2731 z m -54.51472,-20.7865 4.22233,9.6231 -53.73418,15.398 z m 69.871414,-1.5404 48.75025,26.5615 -52.97259,-15.7826 z m -31.484444,-23.0971 -17.27502,8.8539 1.1566,16.1682 13.43835,6.9288 15.34722,-8.4683 -1.5328,-13.8586 z m -14.28466,-8.5144 h 22.81404 l 14.32228,14.3656 -1.06269,19.6862 -13.25959,14.8968 -18.03675,3.7249 -16.44752,-13.3019 -1.06268,-16.4935 -3.18793,-11.173 z m -88.14335,-3.2265 20.79219,6.737 15.99608,10.5861 1.91847,19.2472 -15.67645,11.2282 -21.11182,8.0198 -1.91847,-1.6044 -0.31977,-4.1706 17.27516,-4.8112 14.07775,-9.624 -0.31977,-15.3979 -11.20012,-8.0198 -14.71715,-3.2077 -3.83693,13.4732 1.5987,13.4729 3.52651,1.2837 13.42887,-4.8121 v -6.7369 l -10.87101,-1.9251 0.95917,-3.8489 14.06841,0.3207 2.88698,7.0576 -1.60804,9.3025 -18.86438,6.7369 -9.60142,-2.2457 v -14.7567 l 0.31977,-20.209 z m 196.994324,-1.1547 1.91847,1.6042 0.31963,4.1707 -17.27502,4.8111 -14.07775,9.624 0.31977,15.3981 11.20011,8.0196 14.71715,3.2077 3.8368,-13.473 -1.5987,-13.4731 -3.52637,-1.2837 -13.42888,4.8121 v 6.7371 l 10.87101,1.9249 -0.9593,3.849 -14.06828,-0.3206 -2.88697,-7.0577 1.60804,-9.3024 18.86438,-6.737 9.60141,2.2457 v 14.7566 l -0.31977,20.2092 -3.19726,6.0957 -20.79219,-6.7371 -15.99622,-10.586 -1.91834,-19.2471 15.67632,-11.2284 z m -182.089074,-6.3515 52.59639,16.1682 -4.9934,9.2385 z m 168.904724,-1.5394 -49.89752,26.9461 -4.99341,-8.8539 z m -120.916204,-46.9638 26.86709,46.5782 -9.97761,4.6202 z m 69.476544,-2.6946 -14.200084,54.2776 -10.36315,-5.0048 z m 19.11825,-3.2908 3.15965,2.722 -8.82088,15.6514 -3.15978,16.7856 11.07792,10.6611 13.56988,-2.2683 12.66715,-8.166 -6.78021,-12.249 -10.63595,-8.3927 -3.38537,1.5878 -6.11252,12.9294 4.74888,4.7634 9.04672,-6.3512 2.04067,3.4024 -10.18452,9.7538 -7.00592,-2.9488 -5.42617,-7.7122 8.59529,-18.1467 8.36943,-5.2172 10.4009,10.4345 14.02132,14.5173 2.04053,6.578 -19.45669,9.9803 -18.77033,3.8566 -14.93353,-12.249 3.16912,-19.054 9.27231,-20.6417 z m -103.170934,-0.3176 9.9588,19.5074 3.8368,18.8272 -12.20637,14.9707 -19.00539,-3.1757 -20.58528,-9.2998 -0.22572,-2.4952 2.71768,-3.1756 15.60122,8.8468 16.73914,3.1756 10.63581,-11.1151 -2.26638,-13.6099 -8.14385,-12.7026 -12.20624,6.8049 -8.36957,10.6612 1.57989,3.4024 12.89287,6.1245 4.74901,-4.7634 -6.3289,-9.0734 3.38536,-2.0415 9.73308,10.2075 -2.9434,7.0318 -7.69242,5.4437 -18.09317,-8.6193 -5.20045,-8.3929 10.40076,-10.4343 14.48209,-14.0635 z m 37.7381,-13.3293 h 14.70781 l 20.16213,0.3207 6.074904,3.208 -6.723784,20.8513 -10.55124,16.0395 -19.19349,1.9247 -11.20024,-15.7188 -7.99337,-21.172 1.59869,-1.9247 4.15657,-0.3209 4.79611,17.3227 9.60141,14.1148 15.35669,-0.3208 7.99337,-11.2276 3.19727,-14.7564 -13.42888,-3.8494 -13.43822,1.604 -1.27893,3.5285 4.79597,13.4733 h 6.71444 l 1.92781,-10.9069 3.83693,0.9624 -0.31976,14.1147 -7.04355,2.8871 -9.27231,-1.604 -6.71443,-18.9266 z"
       fill="#ffffff"
       fill-rule="evenodd"
       id="path30-7"
       style="stroke-width:0.940396"
       inkscape:export-filename="rune.png"
       inkscape:export-xdpi="96"
       inkscape:export-ydpi="96" />
    <path
       d="m 122.81353,1170.3653 -14.26269,25.5529 11.32959,10.0533 4.61415,-7.1209 8.80808,2.5128 6.70692,-5.8646 -13.42236,-25.1335 z m 34.8122,-50.268 -14.25418,7.959 -3.36197,19.2698 5.87485,22.2012 19.71755,9.2155 23.0709,-12.1479 -3.78233,-24.7149 -11.74131,-13.8237 z m 10.82358,-52.4925 31.54451,25.2646 23.49113,49.43 -9.64854,54.8753 -27.26482,17.5938 -14.68304,-2.9322 2.10128,30.9981 -25.17218,4.1887 -6.70679,-21.3633 -2.10128,23.4578 -28.1054,-5.0267 -3.35334,-15.9181 -6.70692,21.7827 -24.751816,-8.3776 -2.10128,-35.6064 -19.28868,2.0945 -14.82881,-18.6446 28.56846,-16.7808 21.49278,7.778 21.389956,-22.2012 -3.69655,-23.4088 35.74707,-25.1439 z m -47.73693,-16.625 29.20306,5.2705 -16.26968,40.436 -31.07282,23.7257 -1.56948,-1.9897 -12.170176,1.675 -25.16353,15.9181 -1.25218,25.2878 -29.69191,7.4136 -1.35511,-45.2679 26.84458,-47.3353 z"
       fill="#ffffff"
       fill-rule="evenodd"
       id="path31-8"
       style="stroke-width:0.857654"
       inkscape:export-filename="skull.png"
       inkscape:export-xdpi="96"
       inkscape:export-ydpi="96" />
    <path
       d="m -1003.5349,1662.6263 88.8474,-19.1846 19.079,-89.3414 19.079,89.3414 88.8474,19.1846 -88.8474,19.1845 -19.079,89.3414 -19.079,-89.3414 z"
       fill="#ffffff"
       fill-rule="evenodd"
       id="path1-3"
       style="stroke-width:1.19918"
       inkscape:export-filename="sparkle.png"
       inkscape:export-xdpi="96"
       inkscape:export-ydpi="96" />
    <path
       d="m -747.92637,1612.0218 h 58.79228 v -58.7923 h 98.26817 v 58.7923 h 58.7923 v 99.4673 h -58.7923 v 58.7923 h -98.26817 v -58.7923 h -58.79228 z"
       fill="#ffffff"
       fill-rule="evenodd"
       id="path2-2"
       style="stroke-width:1.19918"
       inkscape:export-filename="cross.png"
       inkscape:export-xdpi="96"
       inkscape:export-ydpi="96" />
    <path
       d="m -127.77154,1617.1794 35.855859,-55.8751 -3.53546,51.2992 40.702862,-8.3624 -16.165696,27.5334 42.33954,7.9182 -33.620929,22.5234 38.466939,27.1192 -45.885008,-3.3524 12.601215,49.6416 -39.739463,-35.0466 -7.446089,50.8651 -26.15584,-46.2602 -19.72016,64.2077 -7.41708,-57.5419 -28.44879,19.1709 8.71861,-35.4516 -53.29308,6.2616 34.55532,-27.0893 -35.85586,-30.4426 44.57447,-9.6139 -41.00999,-51.2703 66.87671,38.7751 10.01915,-38.7751 z"
       fill="#ffffff"
       fill-rule="evenodd"
       id="path3-9"
       style="stroke-width:1.00041"
       inkscape:export-filename="blast.png"
       inkscape:export-xdpi="96"
       inkscape:export-ydpi="96" />
    <path
       d="m 23.7178,1641.5574 h 79.44763 l 24.55538,-79.4519 24.55538,79.4519 h 79.44762 l -64.27919,49.1033 24.55538,79.4519 -64.27919,-49.1043 -64.279186,49.1043 24.555375,-79.4519 z"
       fill="#ffffff"
       fill-rule="evenodd"
       id="path4-0"
       style="stroke-width:1.0667"
       inkscape:export-filename="star.png"
       inkscape:export-xdpi="96"
       inkscape:export-ydpi="96" />
    <path
       d="m -473.81815,1662.2583 h 44.66954 v -109.3162 h 89.33906 v 109.3162 h 44.66954 l -89.33907,93.3455 z"
       fill="#ffffff"
       fill-rule="evenodd"
       id="path5-00"
       style="stroke-width:1.19918"
       inkscape:export-filename="arrow.png"
       inkscape:export-xdpi="96"
       inkscape:export-ydpi="96" />
    <path
       d="m 286.22947,1665.067 c 0,-54.8618 44.24501,-99.3359 98.82905,-99.3359 54.58406,0 98.82907,44.4741 98.82907,99.3359 0,54.8617 -44.24501,99.3359 -98.82907,99.3359 -54.58404,0 -98.82905,-44.4742 -98.82905,-99.3359 z m 157.91363,40.2908 c 22.09717,-32.8649 13.55225,-77.5468 -19.07654,-99.7991 -24.19539,-16.4979 -55.93218,-16.4745 -80.09715,0.06 z m -118.16914,-80.5817 c -22.09716,32.865 -13.55226,77.5469 19.07654,99.7992 24.19538,16.4978 55.93217,16.4745 80.09715,-0.059 z"
       fill="#ffffff"
       fill-rule="evenodd"
       id="path6-1"
       style="stroke-width:1.01363"
       inkscape:export-filename="stop.png"
       inkscape:export-xdpi="96"
       inkscape:export-ydpi="96" />
    <path
       d="m 665.51819,1737.0784 0.7502,30.8446 -36.04068,1.5046 0.3751,-30.0923 z m -4.87627,-176.0387 38.29126,21.8168 10.51317,53.7895 -23.27692,40.248 -22.15163,18.0557 2.62569,26.7071 -37.54107,-0.7524 -2.62568,-18.0557 3.37588,-39.8719 18.02555,-6.3944 18.76532,-12.4136 3.7614,-28.5867 -28.91381,-17.6796 -24.02712,9.7796 -3.3863,20.6888 -17.64003,7.5228 -21.40143,-9.4035 4.50117,-30.4684 31.1644,-32.349 z"
       fill="#ffffff"
       fill-rule="evenodd"
       id="path7-5"
       style="stroke-width:1.04194"
       inkscape:export-filename="question.png"
       inkscape:export-xdpi="96"
       inkscape:export-ydpi="96" />
    <path
       d="m 424.51727,1133.1018 -17.5748,1.6062 -11.71711,13.921 -2.66329,26.2357 33.5537,-5.3542 20.23809,-18.2044 -1.59763,-17.6689 z m -109.17948,-4.2834 -1.06567,25.7003 23.43422,14.4564 29.82474,3.7479 -0.53283,-24.094 -26.09665,-18.7398 z m 75.62665,-77.1008 54.32376,27.842 30.35757,54.613 -13.84757,64.2507 -40.47619,33.1961 -41.00902,34.2671 -54.32376,-46.0463 -32.48717,-44.4401 -2.66329,-62.109 41.00902,-47.1171 z"
       fill="#ffffff"
       fill-rule="evenodd"
       id="path1-2"
       style="stroke-width:0.863584"
       inkscape:export-filename="alien.png"
       inkscape:export-xdpi="96"
       inkscape:export-ydpi="96" />
    <path
       d="m 636.09508,-478.65705 -15.61498,10.94954 17.10299,19.84673 19.33499,-14.37196 z m 3.16655,-16.79813 27.47366,16.23831 -1.12508,29.11592 -14.0181,10.63923 1.68762,16.79813 29.1522,5.03926 -29.71474,5.59908 6.16978,28.557 -5.60724,43.11496 23.54496,-0.56073 35.32199,-18.47758 0.56253,-25.19719 -25.79511,-5.59908 38.1256,-28.55609 25.79512,45.35422 -25.23258,-8.39906 3.9287,30.79627 -25.79512,33.03644 -50.45609,13.43832 -14.0181,31.35609 -8.9734,-29.67664 -44.29266,-12.31869 -38.1256,-38.63551 4.48488,-28.5561 -20.18425,5.59908 22.98787,-47.03459 37.56488,38.0757 h -21.86642 l -5.60634,24.63738 33.64072,18.47758 28.03076,3.35981 -6.72324,-41.99532 5.60724,-28.5561 -29.71838,-5.59998 31.39692,-6.71871 -2.24108,-17.35795 -14.57792,-13.99813 1.68217,-28.55701 z"
       fill="#ffffff"
       fill-rule="evenodd"
       id="path2-5"
       style="stroke-width:0.90732"
       inkscape:export-filename="anchor.png"
       inkscape:export-xdpi="96"
       inkscape:export-ydpi="96" />
    <path
       d="m 977.486,1621.666 -179.6392,-63.183 -18.52,17.344 62.966,183.356 33.336,-2.478 L 896,1696 l 69.1396,85.483 6.1732,-26.636 29.014,-6.195 -82.1034,-72.475 59.2626,-26.016 z"
       fill="#ffffff"
       fill-rule="evenodd"
       id="path3-5"
       inkscape:export-filename="cursor.png"
       inkscape:export-xdpi="96"
       inkscape:export-ydpi="96" />
    <path
       d="m 794.45874,898.58405 44.03897,55.93004 26.1865,38.08046 50.58584,13.08985 52.96616,-20.82496 14.87802,-67.23564 -5.35574,-82.70586 -22.01997,-8.92527 -6.54686,66.04548 -5.35574,-80.32553 -18.44947,-3.56953 -8.92624,86.27539 -1.19016,-101.7456 -13.68882,-7.14003 -22.019,5.35478 5.95082,96.9859 -9.52227,-73.1855 -10.71148,-4.75969 -14.2839,13.68497 -1.19016,35.70012 5.95178,48.19493 -7.14195,2.97541 -10.71244,-23.20532 -31.54128,-19.63483 -23.21013,13.68497"
       fill="#ffffff"
       fill-rule="evenodd"
       id="path4-6"
       style="stroke-width:0.961361"
       inkscape:export-filename="hand.png"
       inkscape:export-xdpi="96"
       inkscape:export-ydpi="96" />
  </g>
</svg>
