# Blender 4.5.2 LTS
# www.blender.org
mtllib KillZone.mtl
o KillZone
v 0.000000 0.000000 0.290069
v 0.000000 -3.053973 0.290069
v -4.337927 0.000000 -3.230761
v 4.337927 0.000000 -3.230761
v -4.337927 -3.053973 -3.230761
v 4.337927 -3.053973 -3.230761
vn -0.0000 1.0000 -0.0000
vn -0.0000 -1.0000 -0.0000
vn 0.6302 -0.0000 0.7764
vn -0.0000 -0.0000 -1.0000
vn -0.6302 -0.0000 0.7764
vt 1.000000 0.000000
vt 1.000000 1.000000
vt 0.000000 1.000000
s 0
usemtl Material.001
f 1/1/1 4/2/1 3/3/1
f 2/1/2 5/3/2 6/2/2
f 1/1/3 2/1/3 6/2/3 4/2/3
f 4/2/4 6/2/4 5/3/4 3/3/4
f 3/3/5 5/3/5 2/1/5 1/1/5
