# Blender 4.5.2 LTS
# www.blender.org
mtllib Ramp.mtl
o Ramp
v 0.000000 0.000000 -1.069137
v 0.000000 2.000000 -1.069137
v 0.208578 0.000000 -1.048594
v 0.208578 2.000000 -1.048594
v 0.409141 0.000000 -0.987754
v 0.409141 2.000000 -0.987754
v 0.593981 0.000000 -0.888955
v 0.593981 2.000000 -0.888955
v 0.755994 0.000000 -0.755994
v 0.755994 2.000000 -0.755994
v 0.888955 0.000000 -0.593981
v 0.888955 2.000000 -0.593981
v 0.987754 0.000000 -0.409141
v 0.987754 2.000000 -0.409141
v 1.048594 0.000000 -0.208578
v 1.048594 2.000000 -0.208578
v 1.069137 0.000000 0.000000
v 1.069137 2.000000 0.000000
v -1.069137 0.000000 0.000000
v -1.069137 2.000000 0.000000
v -1.048594 0.000000 -0.208578
v -1.048594 2.000000 -0.208578
v -0.987754 0.000000 -0.409141
v -0.987754 2.000000 -0.409141
v -0.888955 0.000000 -0.593981
v -0.888955 2.000000 -0.593981
v -0.755994 0.000000 -0.755994
v -0.755994 2.000000 -0.755994
v -0.593981 0.000000 -0.888955
v -0.593981 2.000000 -0.888955
v -0.409141 0.000000 -0.987754
v -0.409141 2.000000 -0.987754
v -0.208578 0.000000 -1.048594
v -0.208578 2.000000 -1.048594
v 0.000000 0.000000 -0.737705
v 0.000000 2.000000 -0.737705
v 0.143919 0.000000 -0.723530
v 0.143919 2.000000 -0.723530
v 0.282307 0.000000 -0.681550
v 0.282307 2.000000 -0.681550
v 0.409847 0.000000 -0.613379
v 0.409847 2.000000 -0.613379
v 0.521636 0.000000 -0.521636
v 0.521636 2.000000 -0.521636
v 0.613379 0.000000 -0.409847
v 0.613379 2.000000 -0.409847
v 0.681550 0.000000 -0.282307
v 0.681550 2.000000 -0.282307
v 0.723530 0.000000 -0.143919
v 0.723530 2.000000 -0.143919
v 0.739301 0.000000 0.032486
v 0.739301 2.000000 0.032486
v -0.739301 0.000000 0.032486
v -0.739301 2.000000 0.032486
v -0.723530 0.000000 -0.143919
v -0.723530 2.000000 -0.143919
v -0.681550 0.000000 -0.282307
v -0.681550 2.000000 -0.282307
v -0.613379 0.000000 -0.409847
v -0.613379 2.000000 -0.409847
v -0.521636 0.000000 -0.521636
v -0.521636 2.000000 -0.521636
v -0.409847 0.000000 -0.613379
v -0.409847 2.000000 -0.613379
v -0.282307 0.000000 -0.681550
v -0.282307 2.000000 -0.681550
v -0.143919 0.000000 -0.723530
v -0.143919 2.000000 -0.723530
v -0.739301 0.000000 0.032486
v -0.739301 2.000000 0.032486
v 0.739301 0.000000 0.032486
v 0.739301 2.000000 0.032486
v -1.069137 0.000000 0.000000
v -1.069137 2.000000 0.000000
v 1.069137 0.000000 0.000000
v 1.069137 2.000000 0.000000
vn -0.0000 -0.0000 -1.0000
vn 0.1951 -0.0000 -0.9808
vn 0.3827 -0.0000 -0.9239
vn 0.5556 -0.0000 -0.8315
vn 0.7071 -0.0000 -0.7071
vn 0.8315 -0.0000 -0.5556
vn 0.9239 -0.0000 -0.3827
vn 0.9808 -0.0000 -0.1951
vn 0.0693 0.7071 0.7037
vn -0.0693 0.7071 0.7037
vn -0.9808 -0.0000 -0.1951
vn -0.9239 -0.0000 -0.3827
vn -0.8315 -0.0000 -0.5556
vn -0.7071 -0.0000 -0.7071
vn -0.5556 -0.0000 -0.8315
vn -0.3827 -0.0000 -0.9239
vn -0.1951 -0.0000 -0.9808
vn -0.0000 -0.0000 1.0000
vn -0.1951 -0.0000 0.9808
vn -0.3827 -0.0000 0.9239
vn -0.5556 -0.0000 0.8315
vn -0.7071 -0.0000 0.7071
vn -0.8315 -0.0000 0.5556
vn -0.9239 -0.0000 0.3827
vn -0.9817 -0.0000 0.1907
vn -0.6716 -0.0000 0.7410
vn 0.6716 -0.0000 0.7410
vn 0.9817 -0.0000 0.1907
vn 0.9239 -0.0000 0.3827
vn 0.8315 -0.0000 0.5556
vn 0.7071 -0.0000 0.7071
vn 0.5556 -0.0000 0.8315
vn 0.3827 -0.0000 0.9239
vn 0.1951 -0.0000 0.9808
vn 0.9990 -0.0000 0.0446
vn -0.9990 -0.0000 0.0446
vn -0.7037 0.7071 -0.0693
vn 0.7037 0.7071 -0.0693
vt 1.000000 0.500000
vt 1.000000 1.000000
vt 0.968750 1.000000
vt 0.968750 0.500000
vt 0.937500 1.000000
vt 0.937500 0.500000
vt 0.906250 1.000000
vt 0.906250 0.500000
vt 0.875000 1.000000
vt 0.875000 0.500000
vt 0.843750 1.000000
vt 0.843750 0.500000
vt 0.812500 1.000000
vt 0.812500 0.500000
vt 0.781250 1.000000
vt 0.781250 0.500000
vt 0.750000 0.500000
vt 0.750000 1.000000
vt 0.250000 0.500000
vt 0.250000 1.000000
vt 0.218750 1.000000
vt 0.218750 0.500000
vt 0.187500 1.000000
vt 0.187500 0.500000
vt 0.156250 1.000000
vt 0.156250 0.500000
vt 0.125000 1.000000
vt 0.125000 0.500000
vt 0.093750 1.000000
vt 0.093750 0.500000
vt 0.062500 1.000000
vt 0.062500 0.500000
vt 0.031250 1.000000
vt 0.031250 0.500000
vt 0.000000 1.000000
vt 0.000000 0.500000
s 1
f 1/1/1 2/2/1 4/3/2 3/4/2
f 3/4/2 4/3/2 6/5/3 5/6/3
f 5/6/3 6/5/3 8/7/4 7/8/4
f 7/8/4 8/7/4 10/9/5 9/10/5
f 9/10/5 10/9/5 12/11/6 11/12/6
f 11/12/6 12/11/6 14/13/7 13/14/7
f 13/14/7 14/13/7 16/15/8 15/16/8
f 75/17/38 76/18/38 18/18/9 17/17/9
f 73/19/37 74/20/37 22/21/11 21/22/11
f 21/22/11 22/21/11 24/23/12 23/24/12
f 23/24/12 24/23/12 26/25/13 25/26/13
f 25/26/13 26/25/13 28/27/14 27/28/14
f 27/28/14 28/27/14 30/29/15 29/30/15
f 29/30/15 30/29/15 32/31/16 31/32/16
f 31/32/16 32/31/16 34/33/17 33/34/17
f 33/34/17 34/33/17 2/35/1 1/36/1
f 35/1/18 37/4/19 38/3/19 36/2/18
f 37/4/19 39/6/20 40/5/20 38/3/19
f 39/6/20 41/8/21 42/7/21 40/5/20
f 41/8/21 43/10/22 44/9/22 42/7/21
f 43/10/22 45/12/23 46/11/23 44/9/22
f 45/12/23 47/14/24 48/13/24 46/11/23
f 47/14/24 49/16/25 50/15/25 48/13/24
f 71/17/36 51/17/26 52/18/26 72/18/36
f 69/19/35 55/22/28 56/21/28 70/20/35
f 55/22/28 57/24/29 58/23/29 56/21/28
f 57/24/29 59/26/30 60/25/30 58/23/29
f 59/26/30 61/28/31 62/27/31 60/25/30
f 61/28/31 63/30/32 64/29/32 62/27/31
f 63/30/32 65/32/33 66/31/33 64/29/32
f 65/32/33 67/34/34 68/33/34 66/31/33
f 67/34/34 35/36/18 36/35/18 68/33/34
f 17/17/9 18/18/9 52/18/26 51/17/26
f 19/19/10 53/19/27 54/20/27 20/20/10
f 53/19/27 69/19/35 70/20/35 54/20/27
f 49/16/25 71/17/36 72/18/36 50/15/25
f 19/19/10 20/20/10 74/20/37 73/19/37
f 15/16/8 16/15/8 76/18/38 75/17/38
