# Blender 4.5.2 LTS
# www.blender.org
mtllib RampEntry.mtl
o RampEntry
v 0.000000 2.000000 -1.069137
v 0.208578 2.000000 -1.048594
v 0.409141 2.000000 -0.987754
v 0.593981 2.000000 -0.888955
v 0.755994 2.000000 -0.755994
v 0.888955 2.000000 -0.593981
v 0.987754 1.987754 -0.409141
v 1.048594 2.000000 -0.208578
v -1.069137 2.000000 0.000000
v -1.048594 2.000000 -0.208578
v -0.987754 2.000000 -0.409141
v -0.888955 2.000000 -0.593981
v -0.755994 2.000000 -0.755994
v -0.593981 2.000000 -0.888955
v -0.409141 2.000000 -0.987754
v -0.208578 2.000000 -1.048594
v 0.000000 2.000000 -0.737705
v 0.143919 2.000000 -0.723530
v 0.282307 2.000000 -0.681550
v 0.409847 2.000000 -0.613379
v 0.521636 2.000000 -0.521636
v 0.613379 2.000000 -0.409847
v 0.681550 2.000000 -0.282307
v 0.723530 2.000000 -0.143919
v 0.739301 2.000000 0.032486
v -0.739301 2.000000 0.032486
v -0.723530 2.000000 -0.143919
v -0.681550 2.000000 -0.282307
v -0.613379 2.000000 -0.409847
v -0.521636 2.000000 -0.521636
v -0.409847 2.000000 -0.613379
v -0.282307 2.000000 -0.681550
v -0.143919 2.000000 -0.723530
v -0.739301 2.000000 0.032486
v 0.739301 2.000000 0.032486
v -1.069137 2.000000 0.000000
v -0.000000 1.000000 -1.069137
v 2.000000 1.000000 -1.069137
v 1.069137 2.000000 0.000000
v 1.048594 2.000000 -0.208578
v 2.000000 2.048594 -0.208578
v 0.987754 1.987754 -0.409141
v 2.000000 1.987754 -0.409141
v 0.888955 1.888955 -0.593980
v 2.000000 1.888955 -0.593981
v 0.755994 1.755994 -0.755994
v 2.000000 1.755994 -0.755994
v 0.593981 1.593981 -0.888955
v 2.000000 1.593981 -0.888955
v 0.409141 1.409141 -0.987754
v 2.000000 1.409141 -0.987754
v 0.208578 1.208578 -1.048594
v 2.000000 1.208578 -1.048594
v 0.000000 1.000000 -0.737705
v 2.000000 1.000000 -0.737705
v 2.000000 1.739301 0.032486
v 0.723530 1.723530 -0.143919
v 2.000000 1.723530 -0.143919
v 0.681550 1.681550 -0.282307
v 2.000000 1.681550 -0.282307
v 0.613379 1.613379 -0.409847
v 2.000000 1.613379 -0.409847
v 0.521636 1.521636 -0.521636
v 2.000000 1.521636 -0.521636
v 0.409847 1.409847 -0.613379
v 2.000000 1.409847 -0.613379
v 0.282308 1.282307 -0.681550
v 2.000000 1.282308 -0.681550
v 0.143920 1.143919 -0.723530
v 2.000000 1.143919 -0.723530
v 2.000000 1.739301 0.032486
v 1.069137 2.000000 0.000000
v 2.000000 2.069137 0.000000
v 0.000000 1.000000 -1.069137
v 0.208578 1.208578 -1.048594
v 0.409141 1.409141 -0.987754
v 0.593981 1.593981 -0.888955
v 0.755994 1.755994 -0.755994
v 0.888955 1.888955 -0.593980
v 0.987754 1.987754 -0.409141
v 1.048594 2.000000 -0.208578
v -1.069137 1.000000 0.000000
v -1.048594 1.000000 -0.208578
v -0.987754 1.000000 -0.409141
v -0.888955 1.000000 -0.593981
v -0.755994 1.000000 -0.755994
v -0.593981 1.000000 -0.888955
v -0.409141 1.000000 -0.987754
v -0.208578 1.000000 -1.048594
v 0.000000 1.000000 -0.737705
v 0.143920 1.143919 -0.723530
v 0.282308 1.282307 -0.681550
v 0.409847 1.409847 -0.613379
v 0.521636 1.521636 -0.521636
v 0.613379 1.613379 -0.409847
v 0.681550 1.681550 -0.282307
v 0.723530 1.723530 -0.143919
v 0.739299 1.739300 0.032486
v -0.739301 1.000000 0.032486
v -0.723530 1.000000 -0.143919
v -0.681550 1.000000 -0.282307
v -0.613379 1.000000 -0.409847
v -0.521636 1.000000 -0.521636
v -0.409847 1.000000 -0.613379
v -0.282307 1.000000 -0.681550
v -0.143919 1.000000 -0.723530
v -0.739301 1.000000 0.032486
v -1.069137 1.000000 0.000000
v 2.000000 1.739301 0.032486
v 0.739299 1.739300 0.032486
v 2.000000 2.069137 0.000000
v 0.000000 0.000000 -1.069137
v 0.208578 0.000000 -1.048594
v 0.409141 0.000000 -0.987754
v 0.593981 0.000000 -0.888955
v 0.755994 0.000000 -0.755994
v 0.888955 0.000000 -0.593981
v 0.987754 0.012246 -0.409141
v 1.048594 0.000000 -0.208578
v -1.069137 0.000000 0.000000
v -1.048594 0.000000 -0.208578
v -0.987754 0.000000 -0.409141
v -0.888955 0.000000 -0.593981
v -0.755994 0.000000 -0.755994
v -0.593981 0.000000 -0.888955
v -0.409141 0.000000 -0.987754
v -0.208578 0.000000 -1.048594
v 0.000000 0.000000 -0.737705
v 0.143919 0.000000 -0.723530
v 0.282307 0.000000 -0.681550
v 0.409847 0.000000 -0.613379
v 0.521636 0.000000 -0.521636
v 0.613379 0.000000 -0.409847
v 0.681550 0.000000 -0.282307
v 0.723530 0.000000 -0.143919
v 0.739301 0.000000 0.032486
v -0.739301 0.000000 0.032486
v -0.723530 0.000000 -0.143919
v -0.681550 0.000000 -0.282307
v -0.613379 0.000000 -0.409847
v -0.521636 0.000000 -0.521636
v -0.409847 0.000000 -0.613379
v -0.282307 0.000000 -0.681550
v -0.143919 0.000000 -0.723530
v -0.739301 0.000000 0.032486
v 0.739301 0.000000 0.032486
v -1.069137 0.000000 0.000000
v 1.069137 0.000000 0.000000
v 1.048594 0.000000 -0.208578
v 2.000000 -0.048594 -0.208578
v 0.987754 0.012246 -0.409141
v 2.000000 0.012246 -0.409141
v 0.888955 0.111045 -0.593980
v 2.000000 0.111045 -0.593981
v 0.755994 0.244006 -0.755994
v 2.000000 0.244006 -0.755994
v 0.593981 0.406019 -0.888955
v 2.000000 0.406019 -0.888955
v 0.409141 0.590859 -0.987754
v 2.000000 0.590859 -0.987754
v 0.208578 0.791422 -1.048594
v 2.000000 0.791422 -1.048594
v 2.000000 0.260699 0.032486
v 0.723530 0.276470 -0.143919
v 2.000000 0.276470 -0.143919
v 0.681550 0.318450 -0.282307
v 2.000000 0.318450 -0.282307
v 0.613379 0.386621 -0.409847
v 2.000000 0.386621 -0.409847
v 0.521636 0.478364 -0.521636
v 2.000000 0.478364 -0.521636
v 0.409847 0.590153 -0.613379
v 2.000000 0.590153 -0.613379
v 0.282308 0.717693 -0.681550
v 2.000000 0.717692 -0.681550
v 0.143920 0.856081 -0.723530
v 2.000000 0.856081 -0.723530
v 2.000000 0.260699 0.032486
v 1.069137 0.000000 0.000000
v 2.000000 -0.069137 0.000000
v 0.208578 0.791422 -1.048594
v 0.409141 0.590859 -0.987754
v 0.593981 0.406019 -0.888955
v 0.755994 0.244006 -0.755994
v 0.888955 0.111045 -0.593980
v 0.987754 0.012246 -0.409141
v 1.048594 0.000000 -0.208578
v 0.143920 0.856081 -0.723530
v 0.282308 0.717693 -0.681550
v 0.409847 0.590153 -0.613379
v 0.521636 0.478364 -0.521636
v 0.613379 0.386621 -0.409847
v 0.681550 0.318450 -0.282307
v 0.723530 0.276470 -0.143919
v 0.739299 0.260700 0.032486
v 2.000000 0.260699 0.032486
v 0.739299 0.260700 0.032486
v 2.000000 -0.069137 0.000000
vn -0.0000 -0.0000 -1.0000
vn 0.1951 -0.0000 -0.9808
vn 0.3827 -0.0000 -0.9239
vn 0.5556 -0.0000 -0.8315
vn 0.7071 -0.0000 -0.7071
vn 0.8304 -0.0000 -0.5571
vn 0.6236 0.7071 -0.3333
vn -0.0000 1.0000 -0.0000
vn -0.0693 0.7071 0.7037
vn -0.9808 -0.0000 -0.1951
vn -0.9239 -0.0000 -0.3827
vn -0.8315 -0.0000 -0.5556
vn -0.7071 -0.0000 -0.7071
vn -0.5556 -0.0000 -0.8315
vn -0.3827 -0.0000 -0.9239
vn -0.1951 -0.0000 -0.9808
vn -0.0000 -0.0000 1.0000
vn -0.1951 -0.0000 0.9808
vn -0.3827 -0.0000 0.9239
vn -0.5556 -0.0000 0.8315
vn -0.7071 -0.0000 0.7071
vn -0.8315 -0.0000 0.5556
vn -0.9239 -0.0000 0.3827
vn -0.9817 -0.0000 0.1907
vn 0.0693 0.7071 0.7037
vn 0.6716 -0.0000 0.7410
vn 0.9817 -0.0000 0.1907
vn 0.9239 -0.0000 0.3827
vn 0.8315 -0.0000 0.5556
vn 0.7071 -0.0000 0.7071
vn 0.5556 -0.0000 0.8315
vn 0.3827 -0.0000 0.9239
vn 0.1951 -0.0000 0.9808
vn 0.9990 -0.0000 0.0446
vn -0.7043 0.7071 0.0630
vn -0.7037 0.7071 -0.0693
vn -0.0321 0.9992 -0.0237
vn -0.0412 0.9921 -0.1188
vn -0.0436 0.9929 -0.1107
vn -0.0096 0.9326 -0.3608
vn -0.0123 0.9447 -0.3276
vn -0.0000 0.8142 -0.5805
vn -0.0000 0.8315 -0.5556
vn -0.0000 0.6803 -0.7329
vn -0.0000 0.7071 -0.7071
vn -0.0000 0.5198 -0.8543
vn -0.0000 0.5556 -0.8315
vn -0.0000 0.3398 -0.9405
vn -0.0000 0.3827 -0.9239
vn -0.0000 0.1477 -0.9890
vn -0.0000 0.1951 -0.9808
vn -0.0026 -0.6666 0.7454
vn -0.0000 -0.9794 0.2019
vn -0.0000 -0.9817 0.1907
vn -0.0000 -0.9154 0.4025
vn -0.0000 -0.9239 0.3827
vn -0.0000 -0.8142 0.5805
vn -0.0000 -0.8315 0.5556
vn -0.0000 -0.6803 0.7329
vn -0.0000 -0.7071 0.7071
vn -0.0000 -0.5198 0.8543
vn -0.0000 -0.5556 0.8315
vn -0.0000 -0.3398 0.9405
vn -0.0000 -0.3827 0.9239
vn -0.0000 -0.1477 0.9890
vn -0.0000 -0.1951 0.9808
vn -0.7825 0.6227 -0.0000
vn 0.0153 0.5024 0.8645
vn -0.0023 0.7596 0.6504
vn -0.0327 -0.0000 -0.9995
vn 0.1477 -0.0000 -0.9890
vn 0.3398 -0.0000 -0.9405
vn 0.5198 -0.0000 -0.8543
vn 0.6803 -0.0000 -0.7329
vn 0.8142 -0.0000 -0.5805
vn 0.0327 -0.0000 0.9995
vn -0.1477 -0.0000 0.9890
vn -0.3398 -0.0000 0.9405
vn -0.5198 -0.0000 0.8543
vn -0.6803 -0.0000 0.7329
vn -0.8142 -0.0000 0.5805
vn -0.9154 -0.0000 0.4025
vn -0.9794 -0.0000 0.2019
vn -0.5502 0.5779 0.6027
vn -0.0000 0.0446 0.9990
vn -0.0000 -0.4859 0.8740
vn -0.0311 0.9993 -0.0230
vn -0.6536 -0.5832 -0.4824
vn -0.0412 -0.9921 -0.1188
vn -0.0436 -0.9929 -0.1107
vn -0.0096 -0.9326 -0.3608
vn -0.0123 -0.9447 -0.3276
vn -0.0000 -0.8142 -0.5805
vn -0.0000 -0.8315 -0.5556
vn -0.0000 -0.6803 -0.7329
vn -0.0000 -0.7071 -0.7071
vn -0.0000 -0.5198 -0.8543
vn -0.0000 -0.5556 -0.8315
vn -0.0000 -0.3398 -0.9405
vn -0.0000 -0.3827 -0.9239
vn -0.0000 -0.1477 -0.9890
vn -0.0000 -0.1951 -0.9808
vn -0.0026 0.6666 0.7454
vn -0.0000 0.9794 0.2019
vn -0.0000 0.9817 0.1907
vn -0.0000 0.9154 0.4025
vn -0.0000 0.9239 0.3827
vn -0.0000 0.8142 0.5805
vn -0.0000 0.8315 0.5556
vn -0.0000 0.6803 0.7329
vn -0.0000 0.7071 0.7071
vn -0.0000 0.5198 0.8543
vn -0.0000 0.5556 0.8315
vn -0.0000 0.3398 0.9405
vn -0.0000 0.3827 0.9239
vn -0.0000 0.1477 0.9890
vn -0.0000 0.1951 0.9808
vn 0.0164 0.3743 0.9272
vn -0.0026 0.6864 0.7272
vn -0.5669 0.5413 0.6210
vn -0.0000 0.9990 0.0446
vn -0.0000 0.9990 0.0458
vn -0.8007 0.0982 -0.5910
vt 1.000000 0.750000
vt 1.000000 1.000000
vt 0.968750 1.000000
vt 0.968750 0.750000
vt 0.937500 1.000000
vt 0.937500 0.750000
vt 0.906250 1.000000
vt 0.906250 0.750000
vt 0.875000 1.000000
vt 0.875000 0.750000
vt 0.843750 1.000000
vt 0.843750 0.750000
vt 0.812500 1.000000
vt 0.812500 0.750000
vt 0.781250 1.000000
vt 0.781250 0.750000
vt 0.250000 0.750000
vt 0.250000 1.000000
vt 0.218750 1.000000
vt 0.218750 0.750000
vt 0.187500 1.000000
vt 0.187500 0.750000
vt 0.156250 1.000000
vt 0.156250 0.750000
vt 0.125000 1.000000
vt 0.125000 0.750000
vt 0.093750 1.000000
vt 0.093750 0.750000
vt 0.062500 1.000000
vt 0.062500 0.750000
vt 0.031250 1.000000
vt 0.031250 0.750000
vt 0.000000 1.000000
vt 0.000000 0.750000
vt 0.750000 0.750000
vt 0.750000 1.000000
vt 0.250000 0.500000
vt 0.218750 0.500000
vt 0.187500 0.500000
vt 0.156250 0.500000
vt 0.125000 0.500000
vt 0.093750 0.500000
vt 0.062500 0.500000
vt 0.031250 0.500000
vt 0.000000 0.500000
s 1
usemtl Metal
f 74/1/70 1/2/1 2/3/2 75/4/71
f 75/4/71 2/3/2 3/5/3 76/6/72
f 76/6/72 3/5/3 4/7/4 77/8/73
f 77/8/73 4/7/4 5/9/5 78/10/74
f 78/10/74 5/9/5 6/11/6 79/12/75
f 79/12/75 6/11/6 7/13/7 80/14/7
f 80/14/7 7/13/7 8/15/8 81/16/8
f 108/17/36 36/18/36 10/19/10 83/20/10
f 83/20/10 10/19/10 11/21/11 84/22/11
f 84/22/11 11/21/11 12/23/12 85/24/12
f 85/24/12 12/23/12 13/25/13 86/26/13
f 86/26/13 13/25/13 14/27/14 87/28/14
f 87/28/14 14/27/14 15/29/15 88/30/15
f 88/30/15 15/29/15 16/31/16 89/32/16
f 89/32/16 16/31/16 1/33/1 74/34/70
f 90/1/76 91/4/77 18/3/18 17/2/17
f 91/4/77 92/6/78 19/5/19 18/3/18
f 92/6/78 93/8/79 20/7/20 19/5/19
f 93/8/79 94/10/80 21/9/21 20/7/20
f 94/10/80 95/12/81 22/11/22 21/9/21
f 95/12/81 96/14/82 23/13/23 22/11/22
f 96/14/82 97/16/83 24/15/24 23/13/23
f 98/35/84 25/36/25 35/36/35
f 107/17/34 100/20/27 27/19/27 34/18/34
f 100/20/27 101/22/28 28/21/28 27/19/27
f 101/22/28 102/24/29 29/23/29 28/21/28
f 102/24/29 103/26/30 30/25/30 29/23/29
f 103/26/30 104/28/31 31/27/31 30/25/30
f 104/28/31 105/30/32 32/29/32 31/27/31
f 105/30/32 106/32/33 33/31/33 32/29/32
f 106/32/33 90/34/76 17/33/17 33/31/33
f 72/36/68 25/36/25 98/35/84
f 82/17/9 99/17/26 26/18/26 9/18/9
f 99/17/26 107/17/34 34/18/34 26/18/26
f 97/16/83 98/35/84 35/36/35 24/15/24
f 82/17/9 9/18/9 36/18/36 108/17/36
f 81/16/8 8/15/8 72/35/68
f 39/37/37 111/18/87 41/19/39 40/38/38
f 40/38/38 41/19/39 43/21/41 42/39/40
f 42/39/40 43/21/41 45/23/43 44/40/42
f 44/40/42 45/23/43 47/25/45 46/41/44
f 46/41/44 47/25/45 49/27/47 48/42/46
f 48/42/46 49/27/47 51/29/49 50/43/48
f 50/43/48 51/29/49 53/31/51 52/44/50
f 52/44/50 53/31/51 38/33/1 37/45/1
f 110/37/86 57/38/53 58/19/54 109/18/85
f 57/38/53 59/39/55 60/21/56 58/19/54
f 59/39/55 61/40/57 62/23/58 60/21/56
f 61/40/57 63/41/59 64/25/60 62/23/58
f 63/41/59 65/42/61 66/27/62 64/25/60
f 65/42/61 67/43/63 68/29/64 66/27/62
f 67/43/63 69/44/65 70/31/66 68/29/64
f 69/44/65 54/45/17 55/33/17 70/31/66
f 72/37/68 98/37/84 56/18/52 73/18/69
f 98/37/84 71/18/67 56/18/52
f 72/37/68 73/18/69 111/18/87 39/37/37
f 98/37/84 110/37/86 109/18/85 71/18/67
f 74/1/70 181/4/71 113/3/2 112/2/1
f 181/4/71 182/6/72 114/5/3 113/3/2
f 182/6/72 183/8/73 115/7/4 114/5/3
f 183/8/73 184/10/74 116/9/5 115/7/4
f 184/10/74 185/12/75 117/11/6 116/9/5
f 185/12/75 186/14/7 118/13/7 117/11/6
f 186/14/7 187/16/8 119/15/8 118/13/7
f 108/17/36 83/20/10 121/19/10 147/18/36
f 83/20/10 84/22/11 122/21/11 121/19/10
f 84/22/11 85/24/12 123/23/12 122/21/11
f 85/24/12 86/26/13 124/25/13 123/23/12
f 86/26/13 87/28/14 125/27/14 124/25/13
f 87/28/14 88/30/15 126/29/15 125/27/14
f 88/30/15 89/32/16 127/31/16 126/29/15
f 89/32/16 74/34/70 112/33/1 127/31/16
f 90/1/76 128/2/17 129/3/18 188/4/77
f 188/4/77 129/3/18 130/5/19 189/6/78
f 189/6/78 130/5/19 131/7/20 190/8/79
f 190/8/79 131/7/20 132/9/21 191/10/80
f 191/10/80 132/9/21 133/11/22 192/12/81
f 192/12/81 133/11/22 134/13/23 193/14/82
f 193/14/82 134/13/23 135/15/24 194/16/83
f 195/35/120 146/36/35 136/36/25
f 107/17/34 145/18/34 138/19/27 100/20/27
f 100/20/27 138/19/27 139/21/28 101/22/28
f 101/22/28 139/21/28 140/23/29 102/24/29
f 102/24/29 140/23/29 141/25/30 103/26/30
f 103/26/30 141/25/30 142/27/31 104/28/31
f 104/28/31 142/27/31 143/29/32 105/30/32
f 105/30/32 143/29/32 144/31/33 106/32/33
f 106/32/33 144/31/33 128/33/17 90/34/76
f 179/36/118 195/35/120 136/36/25
f 82/17/9 120/18/9 137/18/26 99/17/26
f 99/17/26 137/18/26 145/18/34 107/17/34
f 194/16/83 135/15/24 146/36/35 195/35/120
f 82/17/9 108/17/36 147/18/36 120/18/9
f 187/16/8 179/35/118 119/15/8
f 148/37/88 149/38/89 150/19/90 198/18/123
f 149/38/89 151/39/91 152/21/92 150/19/90
f 151/39/91 153/40/93 154/23/94 152/21/92
f 153/40/93 155/41/95 156/25/96 154/23/94
f 155/41/95 157/42/97 158/27/98 156/25/96
f 157/42/97 159/43/99 160/29/100 158/27/98
f 159/43/99 161/44/101 162/31/102 160/29/100
f 161/44/101 37/45/1 38/33/1 162/31/102
f 197/37/122 196/18/121 165/19/105 164/38/104
f 164/38/104 165/19/105 167/21/107 166/39/106
f 166/39/106 167/21/107 169/23/109 168/40/108
f 168/40/108 169/23/109 171/25/111 170/41/110
f 170/41/110 171/25/111 173/27/113 172/42/112
f 172/42/112 173/27/113 175/29/115 174/43/114
f 174/43/114 175/29/115 177/31/117 176/44/116
f 176/44/116 177/31/117 55/33/17 54/45/17
f 179/37/118 180/18/119 163/18/103 195/37/120
f 195/37/120 163/18/103 178/18/8
f 179/37/118 148/37/88 198/18/123 180/18/119
f 195/37/120 178/18/8 196/18/121 197/37/122
