# Blender 4.5.2 LTS
# www.blender.org
mtllib Ramp.mtl
o Ramp
v 0.000000 2.000000 -1.069137
v -1.069137 2.000000 0.000000
v -1.048594 2.000000 -0.208578
v -0.987754 2.000000 -0.409141
v -0.888955 2.000000 -0.593981
v -0.755994 2.000000 -0.755994
v -0.593981 2.000000 -0.888955
v -0.409141 2.000000 -0.987754
v -0.208578 2.000000 -1.048594
v 0.000000 2.000000 -0.737705
v -0.739301 2.000000 0.032486
v -0.723530 2.000000 -0.143919
v -0.681550 2.000000 -0.282307
v -0.613379 2.000000 -0.409847
v -0.521636 2.000000 -0.521636
v -0.409847 2.000000 -0.613379
v -0.282307 2.000000 -0.681550
v -0.143919 2.000000 -0.723530
v -0.739301 2.000000 0.032486
v -1.069137 2.000000 0.000000
v 0.000000 1.000000 -1.069137
v 0.000000 1.000000 -0.737705
v 0.000000 1.000000 -1.069137
v -1.069137 1.000000 0.000000
v -1.048594 1.000000 -0.208578
v -0.987754 1.000000 -0.409141
v -0.888955 1.000000 -0.593981
v -0.755994 1.000000 -0.755994
v -0.593981 1.000000 -0.888955
v -0.409141 1.000000 -0.987754
v -0.208578 1.000000 -1.048594
v 0.000000 1.000000 -0.737705
v -0.739301 1.000000 0.032486
v -0.723530 1.000000 -0.143919
v -0.681550 1.000000 -0.282307
v -0.613379 1.000000 -0.409847
v -0.521636 1.000000 -0.521636
v -0.409847 1.000000 -0.613379
v -0.282307 1.000000 -0.681550
v -0.143919 1.000000 -0.723530
v -0.739301 1.000000 0.032486
v -1.069137 1.000000 0.000000
v 0.000000 0.000000 -1.069137
v -1.069137 0.000000 0.000000
v -1.048594 0.000000 -0.208578
v -0.987754 0.000000 -0.409141
v -0.888955 0.000000 -0.593981
v -0.755994 0.000000 -0.755994
v -0.593981 0.000000 -0.888955
v -0.409141 0.000000 -0.987754
v -0.208578 0.000000 -1.048594
v 0.000000 0.000000 -0.737705
v -0.739301 0.000000 0.032486
v -0.723530 0.000000 -0.143919
v -0.681550 0.000000 -0.282307
v -0.613379 0.000000 -0.409847
v -0.521636 0.000000 -0.521636
v -0.409847 0.000000 -0.613379
v -0.282307 0.000000 -0.681550
v -0.143919 0.000000 -0.723530
v -0.739301 0.000000 0.032486
v -1.069137 0.000000 0.000000
v 1.069137 2.000000 0.000000
v 1.048594 2.000000 -0.208578
v 0.987754 2.000000 -0.409141
v 0.888955 2.000000 -0.593981
v 0.755994 2.000000 -0.755994
v 0.593981 2.000000 -0.888955
v 0.409141 2.000000 -0.987754
v 0.208578 2.000000 -1.048594
v 0.739301 2.000000 0.032486
v 0.723530 2.000000 -0.143919
v 0.681550 2.000000 -0.282307
v 0.613379 2.000000 -0.409847
v 0.521636 2.000000 -0.521636
v 0.409847 2.000000 -0.613379
v 0.282307 2.000000 -0.681550
v 0.143919 2.000000 -0.723530
v 0.739301 2.000000 0.032486
v 1.069137 2.000000 0.000000
v 1.069137 1.000000 0.000000
v 1.048594 1.000000 -0.208578
v 0.987754 1.000000 -0.409141
v 0.888955 1.000000 -0.593981
v 0.755994 1.000000 -0.755994
v 0.593981 1.000000 -0.888955
v 0.409141 1.000000 -0.987754
v 0.208578 1.000000 -1.048594
v 0.739301 1.000000 0.032486
v 0.723530 1.000000 -0.143919
v 0.681550 1.000000 -0.282307
v 0.613379 1.000000 -0.409847
v 0.521636 1.000000 -0.521636
v 0.409847 1.000000 -0.613379
v 0.282307 1.000000 -0.681550
v 0.143919 1.000000 -0.723530
v 0.739301 1.000000 0.032486
v 1.069137 1.000000 0.000000
v 1.069137 0.000000 0.000000
v 1.048594 0.000000 -0.208578
v 0.987754 0.000000 -0.409141
v 0.888955 0.000000 -0.593981
v 0.755994 0.000000 -0.755994
v 0.593981 0.000000 -0.888955
v 0.409141 0.000000 -0.987754
v 0.208578 0.000000 -1.048594
v 0.739301 0.000000 0.032486
v 0.723530 0.000000 -0.143919
v 0.681550 0.000000 -0.282307
v 0.613379 0.000000 -0.409847
v 0.521636 0.000000 -0.521636
v 0.409847 0.000000 -0.613379
v 0.282307 0.000000 -0.681550
v 0.143919 0.000000 -0.723530
v 0.739301 0.000000 0.032486
v 1.069137 0.000000 0.000000
vn -0.0000 -0.0000 -1.0000
vn -0.0693 0.7071 0.7037
vn -0.9808 -0.0000 -0.1951
vn -0.9239 -0.0000 -0.3827
vn -0.8315 -0.0000 -0.5556
vn -0.7071 -0.0000 -0.7071
vn -0.5556 -0.0000 -0.8315
vn -0.3827 -0.0000 -0.9239
vn -0.1951 -0.0000 -0.9808
vn -0.0000 -0.0000 1.0000
vn 0.6716 -0.0000 0.7410
vn 0.9817 -0.0000 0.1907
vn 0.9239 -0.0000 0.3827
vn 0.8315 -0.0000 0.5556
vn 0.7071 -0.0000 0.7071
vn 0.5556 -0.0000 0.8315
vn 0.3827 -0.0000 0.9239
vn 0.1951 -0.0000 0.9808
vn 0.9990 -0.0000 0.0446
vn -0.7037 0.7071 -0.0693
vn 0.0693 0.7071 0.7037
vn 0.9808 -0.0000 -0.1951
vn 0.9239 -0.0000 -0.3827
vn 0.8315 -0.0000 -0.5556
vn 0.7071 -0.0000 -0.7071
vn 0.5556 -0.0000 -0.8315
vn 0.3827 -0.0000 -0.9239
vn 0.1951 -0.0000 -0.9808
vn -0.6716 -0.0000 0.7410
vn -0.9817 -0.0000 0.1907
vn -0.9239 -0.0000 0.3827
vn -0.8315 -0.0000 0.5556
vn -0.7071 -0.0000 0.7071
vn -0.5556 -0.0000 0.8315
vn -0.3827 -0.0000 0.9239
vn -0.1951 -0.0000 0.9808
vn -0.9990 -0.0000 0.0446
vn 0.7037 0.7071 -0.0693
vt 0.250000 0.750000
vt 0.250000 1.000000
vt 0.218750 1.000000
vt 0.218750 0.750000
vt 0.187500 1.000000
vt 0.187500 0.750000
vt 0.156250 1.000000
vt 0.156250 0.750000
vt 0.125000 1.000000
vt 0.125000 0.750000
vt 0.093750 1.000000
vt 0.093750 0.750000
vt 0.062500 1.000000
vt 0.062500 0.750000
vt 0.031250 1.000000
vt 0.031250 0.750000
vt 0.000000 1.000000
vt 0.000000 0.750000
s 1
usemtl Metal
f 42/1/20 20/2/20 3/3/3 25/4/3
f 25/4/3 3/3/3 4/5/4 26/6/4
f 26/6/4 4/5/4 5/7/5 27/8/5
f 27/8/5 5/7/5 6/9/6 28/10/6
f 28/10/6 6/9/6 7/11/7 29/12/7
f 29/12/7 7/11/7 8/13/8 30/14/8
f 30/14/8 8/13/8 9/15/9 31/16/9
f 31/16/9 9/15/9 1/17/1 23/18/1
f 41/1/19 34/4/12 12/3/12 19/2/19
f 34/4/12 35/6/13 13/5/13 12/3/12
f 35/6/13 36/8/14 14/7/14 13/5/13
f 36/8/14 37/10/15 15/9/15 14/7/14
f 37/10/15 38/12/16 16/11/16 15/9/15
f 38/12/16 39/14/17 17/13/17 16/11/16
f 39/14/17 40/16/18 18/15/18 17/13/17
f 40/16/18 32/18/10 10/17/10 18/15/18
f 24/1/2 33/1/11 11/2/11 2/2/2
f 33/1/11 41/1/19 19/2/19 11/2/11
f 24/1/2 2/2/2 20/2/20 42/1/20
f 42/1/20 25/4/3 45/3/3 62/2/20
f 25/4/3 26/6/4 46/5/4 45/3/3
f 26/6/4 27/8/5 47/7/5 46/5/4
f 27/8/5 28/10/6 48/9/6 47/7/5
f 28/10/6 29/12/7 49/11/7 48/9/6
f 29/12/7 30/14/8 50/13/8 49/11/7
f 30/14/8 31/16/9 51/15/9 50/13/8
f 31/16/9 23/18/1 43/17/1 51/15/9
f 41/1/19 61/2/19 54/3/12 34/4/12
f 34/4/12 54/3/12 55/5/13 35/6/13
f 35/6/13 55/5/13 56/7/14 36/8/14
f 36/8/14 56/7/14 57/9/15 37/10/15
f 37/10/15 57/9/15 58/11/16 38/12/16
f 38/12/16 58/11/16 59/13/17 39/14/17
f 39/14/17 59/13/17 60/15/18 40/16/18
f 40/16/18 60/15/18 52/17/10 32/18/10
f 24/1/2 44/2/2 53/2/11 33/1/11
f 33/1/11 53/2/11 61/2/19 41/1/19
f 24/1/2 42/1/20 62/2/20 44/2/2
f 98/1/38 82/4/22 64/3/22 80/2/38
f 82/4/22 83/6/23 65/5/23 64/3/22
f 83/6/23 84/8/24 66/7/24 65/5/23
f 84/8/24 85/10/25 67/9/25 66/7/24
f 85/10/25 86/12/26 68/11/26 67/9/25
f 86/12/26 87/14/27 69/13/27 68/11/26
f 87/14/27 88/16/28 70/15/28 69/13/27
f 88/16/28 23/18/1 1/17/1 70/15/28
f 97/1/37 79/2/37 72/3/30 90/4/30
f 90/4/30 72/3/30 73/5/31 91/6/31
f 91/6/31 73/5/31 74/7/32 92/8/32
f 92/8/32 74/7/32 75/9/33 93/10/33
f 93/10/33 75/9/33 76/11/34 94/12/34
f 94/12/34 76/11/34 77/13/35 95/14/35
f 95/14/35 77/13/35 78/15/36 96/16/36
f 96/16/36 78/15/36 10/17/10 32/18/10
f 81/1/21 63/2/21 71/2/29 89/1/29
f 89/1/29 71/2/29 79/2/37 97/1/37
f 81/1/21 98/1/38 80/2/38 63/2/21
f 98/1/38 116/2/38 100/3/22 82/4/22
f 82/4/22 100/3/22 101/5/23 83/6/23
f 83/6/23 101/5/23 102/7/24 84/8/24
f 84/8/24 102/7/24 103/9/25 85/10/25
f 85/10/25 103/9/25 104/11/26 86/12/26
f 86/12/26 104/11/26 105/13/27 87/14/27
f 87/14/27 105/13/27 106/15/28 88/16/28
f 88/16/28 106/15/28 43/17/1 23/18/1
f 97/1/37 90/4/30 108/3/30 115/2/37
f 90/4/30 91/6/31 109/5/31 108/3/30
f 91/6/31 92/8/32 110/7/32 109/5/31
f 92/8/32 93/10/33 111/9/33 110/7/32
f 93/10/33 94/12/34 112/11/34 111/9/33
f 94/12/34 95/14/35 113/13/35 112/11/34
f 95/14/35 96/16/36 114/15/36 113/13/35
f 96/16/36 32/18/10 52/17/10 114/15/36
f 81/1/21 89/1/29 107/2/29 99/2/21
f 89/1/29 97/1/37 115/2/37 107/2/29
f 81/1/21 99/2/21 116/2/38 98/1/38
